Bodoni-48-Bold.ufo
<glyph name="exclam" format="2">
  <advance width="1546"/>
  <unicode hex="0021"/>
  <outline>
    <contour>
      <point x="1133.5" y="2617.5" type="curve" smooth="yes"/>
      <point x="1088" y="2019"/>
      <point x="779.5" y="1569"/>
      <point x="779.5" y="1057" type="curve"/>
      <point x="760.5" y="1057" type="line"/>
      <point x="760.5" y="1569"/>
      <point x="451" y="2019"/>
      <point x="405.5" y="2617.5" type="curve" smooth="yes"/>
      <point x="403.5" y="2646"/>
      <point x="405.5" y="2671"/>
      <point x="405.5" y="2695.5" type="curve" smooth="yes"/>
      <point x="405.5" y="2924.5"/>
      <point x="516" y="3104.5"/>
      <point x="770.5" y="3104.5" type="curve" smooth="yes"/>
      <point x="1025" y="3104.5"/>
      <point x="1138.5" y="2924.5"/>
      <point x="1138.5" y="2695.5" type="curve" smooth="yes"/>
      <point x="1138.5" y="2671"/>
      <point x="1135.5" y="2646"/>
    </contour>
    <component base="period" xOffset="241.5"/>
  </outline>
</glyph>
<glyph name="dollar" format="2">
  <advance width="1189"/>
  <unicode hex="0024"/>
  <outline>
    <contour>
      <point x="642" y="1660" type="line"/>
      <point x="652" y="1660" type="line"/>
      <point x="652" y="-160" type="line"/>
      <point x="642" y="-160" type="line"/>
    </contour>
    <contour>
      <point x="484" y="1660" type="line"/>
      <point x="494" y="1660" type="line"/>
      <point x="494" y="-160" type="line"/>
      <point x="484" y="-160" type="line"/>
    </contour>
    <contour>
      <point x="1032" y="1254" type="curve"/>
      <point x="1000" y="1400"/>
      <point x="818" y="1508"/>
      <point x="620" y="1508" type="curve" smooth="yes"/>
      <point x="448" y="1508"/>
      <point x="320" y="1404"/>
      <point x="320" y="1258" type="curve" smooth="yes"/>
      <point x="320" y="901"/>
      <point x="1110" y="1010"/>
      <point x="1110" y="440" type="curve" smooth="yes"/>
      <point x="1110" y="160"/>
      <point x="902" y="-30"/>
      <point x="590" y="-30" type="curve" smooth="yes"/>
      <point x="219" y="-30"/>
      <point x="55" y="160"/>
      <point x="55" y="310" type="curve" smooth="yes"/>
      <point x="55" y="422"/>
      <point x="122" y="504"/>
      <point x="230" y="504" type="curve" smooth="yes"/>
      <point x="310" y="504"/>
      <point x="388" y="440"/>
      <point x="388" y="332" type="curve" smooth="yes"/>
      <point x="388" y="232"/>
      <point x="298" y="182"/>
      <point x="220" y="182" type="curve" smooth="yes"/>
      <point x="152" y="182"/>
      <point x="94" y="222"/>
      <point x="70" y="274" type="curve"/>
      <point x="92" y="147"/>
      <point x="248" y="-20"/>
      <point x="580" y="-20" type="curve" smooth="yes"/>
      <point x="792" y="-20"/>
      <point x="900" y="106"/>
      <point x="900" y="282" type="curve" smooth="yes"/>
      <point x="900" y="679"/>
      <point x="110" y="530"/>
      <point x="110" y="1110" type="curve" smooth="yes"/>
      <point x="110" y="1360"/>
      <point x="361" y="1520"/>
      <point x="603" y="1520" type="curve" smooth="yes"/>
      <point x="839" y="1520"/>
      <point x="1050" y="1392"/>
      <point x="1050" y="1210" type="curve" smooth="yes"/>
      <point x="1050" y="1098"/>
      <point x="988" y="1026"/>
      <point x="880" y="1026" type="curve" smooth="yes"/>
      <point x="800" y="1026"/>
      <point x="722" y="1078"/>
      <point x="722" y="1183" type="curve" smooth="yes"/>
      <point x="722" y="1280"/>
      <point x="802" y="1338"/>
      <point x="880" y="1338" type="curve" smooth="yes"/>
      <point x="946" y="1338"/>
      <point x="1004" y="1306"/>
    </contour>
  </outline>
</glyph>
<glyph name="ampersand" format="2">
  <advance width="1722"/>
  <unicode hex="0026"/>
  <outline>
    <contour>
      <point x="804" y="936" type="curve"/>
      <point x="800" y="942" type="line"/>
      <point x="857" y="980"/>
      <point x="932" y="1048"/>
      <point x="932" y="1275" type="curve" smooth="yes"/>
      <point x="932" y="1388"/>
      <point x="905" y="1511"/>
      <point x="793" y="1511" type="curve" smooth="yes"/>
      <point x="684" y="1511"/>
      <point x="642" y="1405"/>
      <point x="642" y="1310" type="curve" smooth="yes"/>
      <point x="642" y="1230"/>
      <point x="702" y="1108"/>
      <point x="788" y="980" type="curve" smooth="yes"/>
      <point x="1422" y="9" type="line"/>
      <point x="1668" y="9" type="line"/>
      <point x="1668" y="0" type="line"/>
      <point x="1080" y="0" type="line"/>
      <point x="418" y="980" type="line" smooth="yes"/>
      <point x="366" y="1056"/>
      <point x="326" y="1156"/>
      <point x="326" y="1226" type="curve" smooth="yes"/>
      <point x="326" y="1406"/>
      <point x="516" y="1520"/>
      <point x="798" y="1520" type="curve" smooth="yes"/>
      <point x="1062" y="1520"/>
      <point x="1232" y="1424"/>
      <point x="1232" y="1274" type="curve" smooth="yes"/>
      <point x="1232" y="1088"/>
      <point x="1030" y="1018"/>
    </contour>
    <contour>
      <point x="541" y="825" type="curve"/>
      <point x="544" y="820" type="line"/>
      <point x="448" y="768"/>
      <point x="398" y="672"/>
      <point x="398" y="510" type="curve" smooth="yes"/>
      <point x="398" y="278"/>
      <point x="518" y="36"/>
      <point x="738" y="36" type="curve" smooth="yes"/>
      <point x="1084" y="36"/>
      <point x="1390" y="466"/>
      <point x="1430" y="918" type="curve"/>
      <point x="1439" y="918" type="line"/>
      <point x="1397" y="472"/>
      <point x="1104" y="-20"/>
      <point x="568" y="-20" type="curve" smooth="yes"/>
      <point x="252" y="-20"/>
      <point x="78" y="134"/>
      <point x="78" y="352" type="curve" smooth="yes"/>
      <point x="78" y="666"/>
      <point x="455" y="785"/>
    </contour>
    <contour>
      <point x="1168" y="920" type="line"/>
      <point x="1648" y="920" type="line"/>
      <point x="1648" y="911" type="line"/>
      <point x="1168" y="911" type="line"/>
    </contour>
  </outline>
</glyph>
<glyph name="quotesingle" format="2">
  <advance width="1064"/>
  <unicode hex="0027"/>
  <outline>
    <contour>
      <point x="856" y="2707.5" type="curve" smooth="yes"/>
      <point x="810.5" y="2400"/>
      <point x="542.5" y="2306"/>
      <point x="542.5" y="1855.5" type="curve"/>
      <point x="523" y="1855.5" type="line"/>
      <point x="523" y="2306"/>
      <point x="254" y="2400"/>
      <point x="208.5" y="2707.5" type="curve" smooth="yes"/>
      <point x="204.5" y="2736"/>
      <point x="204.5" y="2757"/>
      <point x="204.5" y="2781.5" type="curve" smooth="yes"/>
      <point x="204.5" y="2982.5"/>
      <point x="352.5" y="3112.5"/>
      <point x="533" y="3112.5" type="curve" smooth="yes"/>
      <point x="713.5" y="3112.5"/>
      <point x="860" y="2982.5"/>
      <point x="860" y="2781.5" type="curve" smooth="yes"/>
      <point x="860" y="2757"/>
      <point x="860" y="2736"/>
    </contour>
  </outline>
</glyph>
<glyph name="parenleft" format="2">
  <advance width="1523"/>
  <unicode hex="0028"/>
  <outline>
    <contour>
      <point x="1454.5" y="-682" type="curve"/>
      <point x="1445.5" y="-696" type="line"/>
      <point x="777.5" y="-409.5"/>
      <point x="266" y="377.5"/>
      <point x="266" y="1331.5" type="curve" smooth="yes"/>
      <point x="266" y="2285.5"/>
      <point x="777.5" y="2990"/>
      <point x="1445.5" y="3276.5" type="curve"/>
      <point x="1454.5" y="3262" type="line"/>
      <point x="1048.5" y="2996"/>
      <point x="900.5" y="2117.5"/>
      <point x="900.5" y="1331.5" type="curve" smooth="yes"/>
      <point x="900.5" y="545.5"/>
      <point x="1048.5" y="-416"/>
    </contour>
  </outline>
</glyph>
<glyph name="plus" format="2">
  <advance width="2170"/>
  <unicode hex="002B"/>
  <outline>
    <contour>
      <point x="1076" y="450.5" type="line"/>
      <point x="1076" y="2130" type="line"/>
      <point x="1095.5" y="2130" type="line"/>
      <point x="1095.5" y="450.5" type="line"/>
    </contour>
    <contour>
      <point x="246" y="1304" type="line"/>
      <point x="1925.5" y="1304" type="line"/>
      <point x="1925.5" y="1284" type="line"/>
      <point x="246" y="1284" type="line"/>
    </contour>
  </outline>
</glyph>
<glyph name="period" format="2">
  <advance width="1064"/>
  <unicode hex="002E"/>
  <outline>
    <contour>
      <point x="164" y="327.5" type="curve" smooth="yes"/>
      <point x="164" y="530"/>
      <point x="330.5" y="696.5"/>
      <point x="533" y="696.5" type="curve" smooth="yes"/>
      <point x="735.5" y="696.5"/>
      <point x="900.5" y="530"/>
      <point x="900.5" y="327.5" type="curve" smooth="yes"/>
      <point x="900.5" y="125"/>
      <point x="735.5" y="-40.5"/>
      <point x="533" y="-40.5" type="curve" smooth="yes"/>
      <point x="330.5" y="-40.5"/>
      <point x="164" y="125"/>
    </contour>
  </outline>
</glyph>
<glyph name="slash" format="2">
  <advance width="2130"/>
  <unicode hex="002F"/>
  <outline>
    <contour>
      <point x="1949.5" y="3194.5" type="line"/>
      <point x="1968.5" y="3194.5" type="line"/>
      <point x="183" y="-614" type="line"/>
      <point x="164" y="-614" type="line"/>
    </contour>
  </outline>
</glyph>
<glyph name="two" format="2">
  <advance width="1199"/>
  <unicode hex="0032"/>
  <outline>
    <contour>
      <point x="1130" y="0" type="line"/>
      <point x="80" y="0" type="line"/>
      <point x="80" y="200" type="line"/>
      <point x="506" y="543" type="line" smooth="yes"/>
      <point x="682" y="685"/>
      <point x="768" y="842"/>
      <point x="768" y="1060" type="curve" smooth="yes"/>
      <point x="768" y="1308"/>
      <point x="669" y="1482"/>
      <point x="485" y="1482" type="curve" smooth="yes"/>
      <point x="275" y="1482"/>
      <point x="104" y="1308"/>
      <point x="112" y="1092" type="curve"/>
      <point x="136" y="1166"/>
      <point x="200" y="1224"/>
      <point x="290" y="1224" type="curve" smooth="yes"/>
      <point x="396" y="1224"/>
      <point x="476" y="1152"/>
      <point x="476" y="1052" type="curve" smooth="yes"/>
      <point x="476" y="942"/>
      <point x="380" y="869"/>
      <point x="280" y="869" type="curve" smooth="yes"/>
      <point x="180" y="869"/>
      <point x="100" y="944"/>
      <point x="100" y="1098" type="curve" smooth="yes"/>
      <point x="100" y="1332"/>
      <point x="286" y="1520"/>
      <point x="600" y="1520" type="curve" smooth="yes"/>
      <point x="912" y="1520"/>
      <point x="1088" y="1350"/>
      <point x="1088" y="1140" type="curve" smooth="yes"/>
      <point x="1088" y="910"/>
      <point x="858" y="799"/>
      <point x="710" y="688" type="curve" smooth="yes"/>
      <point x="242" y="300" type="line"/>
      <point x="1120" y="300" type="line"/>
      <point x="1120" y="450" type="line"/>
      <point x="1130" y="450" type="line"/>
    </contour>
  </outline>
</glyph>
<glyph name="three" format="2">
  <advance width="1140"/>
  <unicode hex="0033"/>
  <outline>
    <contour>
      <point x="1060" y="410" type="curve" smooth="yes"/>
      <point x="1060" y="140"/>
      <point x="812" y="-20"/>
      <point x="510" y="-20" type="curve" smooth="yes"/>
      <point x="196" y="-20"/>
      <point x="48" y="158"/>
      <point x="48" y="322" type="curve" smooth="yes"/>
      <point x="48" y="434"/>
      <point x="124" y="507"/>
      <point x="224" y="507" type="curve" smooth="yes"/>
      <point x="314" y="507"/>
      <point x="382" y="443"/>
      <point x="382" y="341" type="curve" smooth="yes"/>
      <point x="382" y="247"/>
      <point x="301" y="180"/>
      <point x="213" y="180" type="curve" smooth="yes"/>
      <point x="145" y="180"/>
      <point x="98" y="210"/>
      <point x="72" y="256" type="curve"/>
      <point x="95" y="132"/>
      <point x="230" y="-1"/>
      <point x="468" y="-1" type="curve" smooth="yes"/>
      <point x="686" y="-1"/>
      <point x="738" y="192"/>
      <point x="738" y="410" type="curve" smooth="yes"/>
      <point x="738" y="588"/>
      <point x="683" y="806"/>
      <point x="395" y="806" type="curve"/>
      <point x="395" y="812" type="line"/>
      <point x="897" y="812"/>
      <point x="1060" y="640"/>
    </contour>
    <contour>
      <point x="395" y="807" type="curve"/>
      <point x="395" y="814" type="line"/>
      <point x="663" y="814"/>
      <point x="679" y="1044"/>
      <point x="679" y="1182" type="curve" smooth="yes"/>
      <point x="679" y="1340"/>
      <point x="626" y="1502"/>
      <point x="488" y="1502" type="curve" smooth="yes"/>
      <point x="343" y="1502"/>
      <point x="189" y="1412"/>
      <point x="149" y="1301" type="curve"/>
      <point x="184" y="1349"/>
      <point x="234" y="1368"/>
      <point x="282" y="1368" type="curve" smooth="yes"/>
      <point x="360" y="1368"/>
      <point x="436" y="1308"/>
      <point x="436" y="1213" type="curve" smooth="yes"/>
      <point x="436" y="1108"/>
      <point x="352" y="1046"/>
      <point x="272" y="1046" type="curve" smooth="yes"/>
      <point x="182" y="1046"/>
      <point x="109" y="1103"/>
      <point x="109" y="1210" type="curve" smooth="yes"/>
      <point x="109" y="1384"/>
      <point x="317" y="1518"/>
      <point x="521" y="1518" type="curve" smooth="yes"/>
      <point x="783" y="1518"/>
      <point x="1001" y="1392"/>
      <point x="1001" y="1172" type="curve" smooth="yes"/>
      <point x="1001" y="972"/>
      <point x="877" y="807"/>
    </contour>
  </outline>
</glyph>
<glyph name="five" format="2">
  <advance width="1069"/>
  <unicode hex="0035"/>
  <outline>
    <contour>
      <point x="940" y="1200" type="line"/>
      <point x="123" y="1200" type="line"/>
      <point x="123" y="714" type="line"/>
      <point x="114" y="714" type="line"/>
      <point x="114" y="1500" type="line"/>
      <point x="930" y="1500" type="line"/>
      <point x="930" y="1610" type="line"/>
      <point x="940" y="1610" type="line"/>
    </contour>
    <contour>
      <point x="51" y="195" type="curve"/>
      <point x="80" y="89"/>
      <point x="231" y="-4"/>
      <point x="390" y="-4" type="curve" smooth="yes"/>
      <point x="608" y="-4"/>
      <point x="680" y="217"/>
      <point x="680" y="445" type="curve" smooth="yes"/>
      <point x="680" y="713"/>
      <point x="607" y="888"/>
      <point x="439" y="888" type="curve" smooth="yes"/>
      <point x="289" y="888"/>
      <point x="166" y="800"/>
      <point x="126" y="714" type="curve"/>
      <point x="118" y="714" type="line"/>
      <point x="160" y="808"/>
      <point x="292" y="910"/>
      <point x="504" y="910" type="curve" smooth="yes"/>
      <point x="806" y="910"/>
      <point x="1010" y="745"/>
      <point x="1010" y="445" type="curve" smooth="yes"/>
      <point x="1010" y="175"/>
      <point x="764" y="-20"/>
      <point x="432" y="-20" type="curve" smooth="yes"/>
      <point x="218" y="-20"/>
      <point x="20" y="94"/>
      <point x="20" y="278" type="curve" smooth="yes"/>
      <point x="20" y="390"/>
      <point x="99" y="462"/>
      <point x="194" y="462" type="curve" smooth="yes"/>
      <point x="284" y="462"/>
      <point x="368" y="405"/>
      <point x="368" y="295" type="curve" smooth="yes"/>
      <point x="368" y="195"/>
      <point x="282" y="120"/>
      <point x="186" y="120" type="curve" smooth="yes"/>
      <point x="126" y="120"/>
      <point x="77" y="153"/>
    </contour>
  </outline>
</glyph>
<glyph name="six" format="2">
  <advance width="2394"/>
  <unicode hex="0036"/>
  <outline>
    <contour>
      <point x="1730" y="1024" type="curve" smooth="yes"/>
      <point x="1730" y="1624"/>
      <point x="1552" y="1962"/>
      <point x="1238" y="1962" type="curve" smooth="yes"/>
      <point x="873" y="1962"/>
      <point x="747" y="1639"/>
      <point x="747" y="1147" type="curve"/>
      <point x="730" y="1147" type="line"/>
      <point x="730" y="1653"/>
      <point x="840" y="2012"/>
      <point x="1346" y="2012" type="curve" smooth="yes"/>
      <point x="1780" y="2012"/>
      <point x="2274" y="1720"/>
      <point x="2274" y="1024" type="curve" smooth="yes"/>
      <point x="2274" y="410"/>
      <point x="1893" y="-41"/>
      <point x="1255" y="-41" type="curve" smooth="yes"/>
      <point x="617" y="-41"/>
      <point x="205" y="410"/>
      <point x="205" y="1270" type="curve" smooth="yes"/>
      <point x="205" y="2265"/>
      <point x="971" y="3113"/>
      <point x="1966" y="3113" type="curve"/>
      <point x="1966" y="3095" type="line"/>
      <point x="1242" y="3095"/>
      <point x="747" y="2272"/>
      <point x="747" y="1362" type="curve"/>
      <point x="747" y="1147" type="line"/>
      <point x="747" y="547"/>
      <point x="883" y="-21"/>
      <point x="1268" y="-21" type="curve" smooth="yes"/>
      <point x="1653" y="-21"/>
      <point x="1730" y="506"/>
    </contour>
  </outline>
</glyph>
<glyph name="seven" format="2">
  <advance width="1079"/>
  <unicode hex="0037"/>
  <outline>
    <contour>
      <point x="296" y="182" type="curve" smooth="yes"/>
      <point x="296" y="340"/>
      <point x="492" y="528"/>
      <point x="626" y="746" type="curve" smooth="yes"/>
      <point x="694" y="862"/>
      <point x="776" y="1016"/>
      <point x="870" y="1190" type="curve"/>
      <point x="89" y="1190" type="line"/>
      <point x="89" y="1040" type="line"/>
      <point x="80" y="1040" type="line"/>
      <point x="80" y="1500" type="line"/>
      <point x="1060" y="1500" type="line"/>
      <point x="1060" y="1500"/>
      <point x="803" y="1017"/>
      <point x="647" y="754" type="curve" smooth="yes"/>
      <point x="547" y="584"/>
      <point x="510" y="542"/>
      <point x="510" y="472" type="curve" smooth="yes"/>
      <point x="510" y="346"/>
      <point x="676" y="316"/>
      <point x="676" y="166" type="curve" smooth="yes"/>
      <point x="676" y="62"/>
      <point x="606" y="-20"/>
      <point x="488" y="-20" type="curve" smooth="yes"/>
      <point x="380" y="-20"/>
      <point x="296" y="43"/>
    </contour>
  </outline>
</glyph>
<glyph name="eight" format="2">
  <advance width="1199"/>
  <unicode hex="0038"/>
  <outline>
    <contour>
      <point x="440" y="1120" type="curve" smooth="yes"/>
      <point x="440" y="902"/>
      <point x="482" y="783"/>
      <point x="600" y="783" type="curve" smooth="yes"/>
      <point x="718" y="783"/>
      <point x="760" y="902"/>
      <point x="760" y="1120" type="curve" smooth="yes"/>
      <point x="760" y="1328"/>
      <point x="718" y="1495"/>
      <point x="600" y="1495" type="curve" smooth="yes"/>
      <point x="482" y="1495"/>
      <point x="440" y="1328"/>
    </contour>
    <contour>
      <point x="120" y="1120" type="curve" smooth="yes"/>
      <point x="120" y="1340"/>
      <point x="288" y="1520"/>
      <point x="600" y="1520" type="curve" smooth="yes"/>
      <point x="912" y="1520"/>
      <point x="1080" y="1340"/>
      <point x="1080" y="1120" type="curve" smooth="yes"/>
      <point x="1080" y="900"/>
      <point x="912" y="764"/>
      <point x="600" y="764" type="curve" smooth="yes"/>
      <point x="288" y="764"/>
      <point x="120" y="900"/>
    </contour>
    <contour>
      <point x="400" y="380" type="curve" smooth="yes"/>
      <point x="400" y="172"/>
      <point x="452" y="5"/>
      <point x="600" y="5" type="curve" smooth="yes"/>
      <point x="748" y="5"/>
      <point x="800" y="172"/>
      <point x="800" y="380" type="curve" smooth="yes"/>
      <point x="800" y="588"/>
      <point x="748" y="758"/>
      <point x="600" y="758" type="curve" smooth="yes"/>
      <point x="452" y="758"/>
      <point x="400" y="588"/>
    </contour>
    <contour>
      <point x="80" y="380" type="curve" smooth="yes"/>
      <point x="80" y="620"/>
      <point x="248" y="776"/>
      <point x="600" y="776" type="curve" smooth="yes"/>
      <point x="952" y="776"/>
      <point x="1120" y="620"/>
      <point x="1120" y="380" type="curve" smooth="yes"/>
      <point x="1120" y="140"/>
      <point x="952" y="-20"/>
      <point x="600" y="-20" type="curve" smooth="yes"/>
      <point x="248" y="-20"/>
      <point x="80" y="140"/>
    </contour>
  </outline>
</glyph>
<glyph name="less" format="2">
  <advance width="2292"/>
  <unicode hex="003C"/>
  <outline>
    <contour>
      <point x="246" y="1582" type="line"/>
      <point x="246" y="1600.5" type="line"/>
      <point x="2048" y="2461.5" type="line"/>
      <point x="2048" y="2442" type="line"/>
    </contour>
    <contour>
      <point x="246" y="1575" type="line"/>
      <point x="246" y="1594" type="line"/>
      <point x="2048" y="732" type="line"/>
      <point x="2048" y="712.5" type="line"/>
    </contour>
  </outline>
</glyph>
<glyph name="question" format="2">
  <advance width="2395"/>
  <unicode hex="003F"/>
  <outline>
    <contour>
      <point x="1022" y="1466" type="line"/>
      <point x="1398.5" y="1574"/>
      <point x="1532" y="1913"/>
      <point x="1532" y="2294" type="curve" smooth="yes"/>
      <point x="1532" y="2679"/>
      <point x="1482" y="3078.5"/>
      <point x="1076.5" y="3078.5" type="curve" smooth="yes"/>
      <point x="656" y="3078.5"/>
      <point x="321.5" y="2739.5"/>
      <point x="288.5" y="2500" type="curve"/>
      <point x="312.5" y="2564"/>
      <point x="424" y="2662"/>
      <point x="581" y="2662" type="curve" smooth="yes"/>
      <point x="761.5" y="2662"/>
      <point x="917.5" y="2549.5"/>
      <point x="917.5" y="2355" type="curve" smooth="yes"/>
      <point x="917.5" y="2140"/>
      <point x="765.5" y="2023.5"/>
      <point x="581.5" y="2023.5" type="curve" smooth="yes"/>
      <point x="376.5" y="2023.5"/>
      <point x="246" y="2161"/>
      <point x="246" y="2380" type="curve" smooth="yes"/>
      <point x="246" y="2736.5"/>
      <point x="630.5" y="3113"/>
      <point x="1171.5" y="3113" type="curve" smooth="yes"/>
      <point x="1790" y="3113"/>
      <point x="2191.5" y="2786"/>
      <point x="2191.5" y="2294" type="curve" smooth="yes"/>
      <point x="2191.5" y="1823"/>
      <point x="1722" y="1491"/>
      <point x="1042" y="1454" type="curve"/>
      <point x="1042" y="999.5" type="line"/>
      <point x="1022" y="999.5" type="line"/>
    </contour>
    <component base="period" xOffset="569"/>
  </outline>
</glyph>
<glyph name="A" format="2">
  <advance width="1571"/>
  <unicode hex="0041"/>
  <outline>
    <contour>
      <point x="36" y="9" type="line"/>
      <point x="476" y="9" type="line"/>
      <point x="476" y="0" type="line"/>
      <point x="36" y="0" type="line"/>
    </contour>
    <contour>
      <point x="856" y="9" type="line"/>
      <point x="1536" y="9" type="line"/>
      <point x="1536" y="0" type="line"/>
      <point x="856" y="0" type="line"/>
    </contour>
    <contour>
      <point x="399" y="494" type="line"/>
      <point x="1036" y="494" type="line"/>
      <point x="1036" y="484" type="line"/>
      <point x="399" y="484" type="line"/>
    </contour>
    <contour>
      <point x="652" y="1191" type="line"/>
      <point x="234" y="0" type="line"/>
      <point x="222" y="0" type="line"/>
      <point x="760" y="1530" type="line"/>
      <point x="866" y="1530" type="line"/>
      <point x="1396" y="0" type="line"/>
      <point x="1036" y="0" type="line"/>
    </contour>
  </outline>
</glyph>
<glyph name="B" format="2">
  <advance width="1397"/>
  <unicode hex="0042"/>
  <outline>
    <contour>
      <point x="716" y="767" type="curve" smooth="yes"/>
      <point x="476" y="767" type="line"/>
      <point x="476" y="775" type="line"/>
      <point x="676" y="775" type="line" smooth="yes"/>
      <point x="818" y="775"/>
      <point x="935" y="872"/>
      <point x="935" y="1110" type="curve" smooth="yes"/>
      <point x="935" y="1348"/>
      <point x="818" y="1491"/>
      <point x="676" y="1491" type="curve" smooth="yes"/>
      <point x="36" y="1491" type="line"/>
      <point x="36" y="1500" type="line"/>
      <point x="716" y="1500" type="line" smooth="yes"/>
      <point x="1048" y="1500"/>
      <point x="1256" y="1390"/>
      <point x="1256" y="1130" type="curve" smooth="yes"/>
      <point x="1256" y="880"/>
      <point x="1068" y="767"/>
    </contour>
    <contour>
      <point x="215" y="1500" type="line"/>
      <point x="526" y="1500" type="line"/>
      <point x="526" y="0" type="line"/>
      <point x="215" y="0" type="line"/>
    </contour>
    <contour>
      <point x="756" y="0" type="curve" smooth="yes"/>
      <point x="36" y="0" type="line"/>
      <point x="36" y="9" type="line"/>
      <point x="695" y="9" type="line" smooth="yes"/>
      <point x="857" y="9"/>
      <point x="975" y="182"/>
      <point x="975" y="420" type="curve" smooth="yes"/>
      <point x="975" y="658"/>
      <point x="857" y="765"/>
      <point x="695" y="765" type="curve" smooth="yes"/>
      <point x="476" y="765" type="line"/>
      <point x="476" y="773" type="line"/>
      <point x="756" y="773" type="line" smooth="yes"/>
      <point x="1068" y="773"/>
      <point x="1315" y="680"/>
      <point x="1315" y="400" type="curve" smooth="yes"/>
      <point x="1315" y="110"/>
      <point x="1108" y="0"/>
    </contour>
  </outline>
</glyph>
<glyph name="C" format="2">
  <advance width="1409"/>
  <unicode hex="0043"/>
  <outline>
    <contour>
      <point x="1296" y="1500" type="line"/>
      <point x="1305" y="1500" type="line"/>
      <point x="1305" y="1060" type="line"/>
      <point x="1263" y="1192"/>
      <point x="1202" y="1304"/>
      <point x="1112" y="1394" type="curve"/>
    </contour>
    <contour>
      <point x="1305" y="1060" type="curve"/>
      <point x="1294" y="1060" type="line"/>
      <point x="1224" y="1318"/>
      <point x="1048" y="1503"/>
      <point x="824" y="1503" type="curve" smooth="yes"/>
      <point x="526" y="1503"/>
      <point x="434" y="1114"/>
      <point x="434" y="750" type="curve" smooth="yes"/>
      <point x="434" y="386"/>
      <point x="526" y="-3"/>
      <point x="824" y="-3" type="curve" smooth="yes"/>
      <point x="1096" y="-3"/>
      <point x="1254" y="198"/>
      <point x="1314" y="440" type="curve"/>
      <point x="1324" y="440" type="line"/>
      <point x="1264" y="174"/>
      <point x="1090" y="-20"/>
      <point x="804" y="-20" type="curve" smooth="yes"/>
      <point x="358" y="-20"/>
      <point x="84" y="304"/>
      <point x="84" y="750" type="curve" smooth="yes"/>
      <point x="84" y="1196"/>
      <point x="358" y="1520"/>
      <point x="804" y="1520" type="curve" smooth="yes"/>
      <point x="1060" y="1520"/>
      <point x="1235" y="1326"/>
    </contour>
    <contour>
      <point x="1324" y="440" type="curve"/>
      <point x="1324" y="0" type="line"/>
      <point x="1316" y="0" type="line"/>
      <point x="1146" y="117" type="line"/>
      <point x="1236" y="209"/>
      <point x="1288" y="310"/>
    </contour>
  </outline>
</glyph>
<glyph name="D" format="2">
  <advance width="1518"/>
  <unicode hex="0044"/>
  <outline>
    <contour>
      <point x="215" y="1500" type="line"/>
      <point x="526" y="1500" type="line"/>
      <point x="526" y="0" type="line"/>
      <point x="215" y="0" type="line"/>
    </contour>
    <contour>
      <point x="675" y="0" type="curve" smooth="yes"/>
      <point x="36" y="0" type="line"/>
      <point x="36" y="9" type="line"/>
      <point x="675" y="9" type="line" smooth="yes"/>
      <point x="983" y="9"/>
      <point x="1085" y="356"/>
      <point x="1085" y="750" type="curve" smooth="yes"/>
      <point x="1085" y="1144"/>
      <point x="963" y="1491"/>
      <point x="675" y="1491" type="curve" smooth="yes"/>
      <point x="36" y="1491" type="line"/>
      <point x="36" y="1500" type="line"/>
      <point x="675" y="1500" type="line" smooth="yes"/>
      <point x="1151" y="1500"/>
      <point x="1436" y="1196"/>
      <point x="1436" y="750" type="curve" smooth="yes"/>
      <point x="1436" y="304"/>
      <point x="1131" y="0"/>
    </contour>
  </outline>
</glyph>
<glyph name="E" format="2">
  <advance width="1257"/>
  <unicode hex="0045"/>
  <outline>
    <contour>
      <point x="1188" y="450" type="curve"/>
      <point x="1196" y="450" type="line"/>
      <point x="1196" y="0" type="line"/>
      <point x="36" y="0" type="line"/>
      <point x="36" y="9" type="line"/>
      <point x="736" y="9" type="line" smooth="yes"/>
      <point x="1010" y="9"/>
      <point x="1158" y="196"/>
    </contour>
    <contour>
      <point x="215" y="1500" type="line"/>
      <point x="526" y="1500" type="line"/>
      <point x="526" y="0" type="line"/>
      <point x="215" y="0" type="line"/>
    </contour>
    <contour>
      <point x="36" y="1500" type="line"/>
      <point x="1176" y="1500" type="line"/>
      <point x="1176" y="1090" type="line"/>
      <point x="1166" y="1090" type="line"/>
      <point x="1136" y="1304"/>
      <point x="989" y="1491"/>
      <point x="755" y="1491" type="curve" smooth="yes"/>
      <point x="36" y="1491" type="line"/>
    </contour>
    <contour>
      <point x="857" y="526" type="line"/>
      <point x="827" y="660"/>
      <point x="710" y="771"/>
      <point x="596" y="771" type="curve" smooth="yes"/>
      <point x="456" y="771" type="line"/>
      <point x="456" y="781" type="line"/>
      <point x="596" y="781" type="line" smooth="yes"/>
      <point x="710" y="781"/>
      <point x="827" y="882"/>
      <point x="857" y="1016" type="curve"/>
      <point x="866" y="1016" type="line"/>
      <point x="866" y="526" type="line"/>
    </contour>
  </outline>
</glyph>
<glyph name="F" format="2">
  <advance width="1207"/>
  <unicode hex="0046"/>
  <outline>
    <contour>
      <point x="36" y="1500" type="line"/>
      <point x="1146" y="1500" type="line"/>
      <point x="1146" y="1090" type="line"/>
      <point x="1137" y="1090" type="line"/>
      <point x="1107" y="1304"/>
      <point x="980" y="1491"/>
      <point x="756" y="1491" type="curve" smooth="yes"/>
      <point x="36" y="1491" type="line"/>
    </contour>
    <contour>
      <point x="36" y="9" type="line"/>
      <point x="726" y="9" type="line"/>
      <point x="726" y="0" type="line"/>
      <point x="36" y="0" type="line"/>
    </contour>
    <contour>
      <point x="215" y="1500" type="line"/>
      <point x="526" y="1500" type="line"/>
      <point x="526" y="0" type="line"/>
      <point x="215" y="0" type="line"/>
    </contour>
    <contour>
      <point x="857" y="496" type="line"/>
      <point x="827" y="630"/>
      <point x="729" y="741"/>
      <point x="575" y="741" type="curve" smooth="yes"/>
      <point x="446" y="741" type="line"/>
      <point x="446" y="751" type="line"/>
      <point x="575" y="751" type="line" smooth="yes"/>
      <point x="729" y="751"/>
      <point x="827" y="852"/>
      <point x="857" y="986" type="curve"/>
      <point x="866" y="986" type="line"/>
      <point x="866" y="496" type="line"/>
    </contour>
  </outline>
</glyph>
<glyph name="G" format="2">
  <advance width="1514"/>
  <unicode hex="0047"/>
  <outline>
    <contour>
      <point x="1345" y="1060" type="line"/>
      <point x="1298" y="1226"/>
      <point x="1212" y="1332"/>
      <point x="1130" y="1402" type="curve"/>
      <point x="1336" y="1500" type="line"/>
      <point x="1345" y="1500" type="line"/>
    </contour>
    <contour>
      <point x="854" y="575" type="line"/>
      <point x="1494" y="575" type="line"/>
      <point x="1494" y="565" type="line"/>
      <point x="854" y="565" type="line"/>
    </contour>
    <contour>
      <point x="1064" y="570" type="line"/>
      <point x="1394" y="570" type="line"/>
      <point x="1394" y="310" type="line"/>
      <point x="1264" y="174"/>
      <point x="1120" y="-20"/>
      <point x="794" y="-20" type="curve" smooth="yes"/>
      <point x="348" y="-20"/>
      <point x="84" y="284"/>
      <point x="84" y="750" type="curve" smooth="yes"/>
      <point x="84" y="1216"/>
      <point x="418" y="1520"/>
      <point x="824" y="1520" type="curve" smooth="yes"/>
      <point x="1080" y="1520"/>
      <point x="1301" y="1306"/>
      <point x="1345" y="1060" type="curve"/>
      <point x="1336" y="1060" type="line"/>
      <point x="1296" y="1275"/>
      <point x="1091" y="1502"/>
      <point x="850" y="1502" type="curve" smooth="yes"/>
      <point x="552" y="1502"/>
      <point x="434" y="1114"/>
      <point x="434" y="750" type="curve" smooth="yes"/>
      <point x="434" y="386"/>
      <point x="506" y="-8"/>
      <point x="794" y="-8" type="curve" smooth="yes"/>
      <point x="962" y="-8"/>
      <point x="1034" y="166"/>
      <point x="1064" y="250" type="curve"/>
    </contour>
  </outline>
</glyph>
<glyph name="H" format="2">
  <advance width="1589"/>
  <unicode hex="0048"/>
  <outline>
    <contour>
      <point x="486" y="745" type="line"/>
      <point x="1106" y="745" type="line"/>
      <point x="1106" y="735" type="line"/>
      <point x="486" y="735" type="line"/>
    </contour>
    <contour>
      <point x="886" y="9" type="line"/>
      <point x="1556" y="9" type="line"/>
      <point x="1556" y="0" type="line"/>
      <point x="886" y="0" type="line"/>
    </contour>
    <contour>
      <point x="36" y="9" type="line"/>
      <point x="706" y="9" type="line"/>
      <point x="706" y="0" type="line"/>
      <point x="36" y="0" type="line"/>
    </contour>
    <contour>
      <point x="886" y="1500" type="line"/>
      <point x="1556" y="1500" type="line"/>
      <point x="1556" y="1491" type="line"/>
      <point x="886" y="1491" type="line"/>
    </contour>
    <contour>
      <point x="36" y="1500" type="line"/>
      <point x="706" y="1500" type="line"/>
      <point x="706" y="1491" type="line"/>
      <point x="36" y="1491" type="line"/>
    </contour>
    <contour>
      <point x="1066" y="1500" type="line"/>
      <point x="1375" y="1500" type="line"/>
      <point x="1375" y="0" type="line"/>
      <point x="1066" y="0" type="line"/>
    </contour>
    <contour>
      <point x="215" y="1500" type="line"/>
      <point x="526" y="1500" type="line"/>
      <point x="526" y="0" type="line"/>
      <point x="215" y="0" type="line"/>
    </contour>
  </outline>
</glyph>
<glyph name="I" format="2">
  <advance width="1608"/>
  <unicode hex="0049"/>
  <outline>
    <contour>
      <point x="78" y="19" type="line"/>
      <point x="1532" y="19" type="line"/>
      <point x="1532" y="0" type="line"/>
      <point x="78" y="0" type="line"/>
    </contour>
    <contour>
      <point x="78" y="3072" type="line"/>
      <point x="1532" y="3072" type="line"/>
      <point x="1532" y="3053" type="line"/>
      <point x="78" y="3053" type="line"/>
    </contour>
    <contour>
      <point x="528" y="3072" type="line"/>
      <point x="1040" y="3072" type="line"/>
      <point x="1040" y="0" type="line"/>
      <point x="528" y="0" type="line"/>
    </contour>
  </outline>
</glyph>
<glyph name="J" format="2">
  <advance width="1076"/>
  <unicode hex="004A"/>
  <outline>
    <contour>
      <point x="272" y="1500" type="line"/>
      <point x="1042" y="1500" type="line"/>
      <point x="1042" y="1491" type="line"/>
      <point x="272" y="1491" type="line"/>
    </contour>
    <contour>
      <point x="532" y="1500" type="line"/>
      <point x="842" y="1500" type="line"/>
      <point x="842" y="340" type="line"/>
      <point x="762" y="150"/>
      <point x="654" y="-60"/>
      <point x="362" y="-60" type="curve" smooth="yes"/>
      <point x="158" y="-60"/>
      <point x="30" y="60"/>
      <point x="30" y="210" type="curve" smooth="yes"/>
      <point x="30" y="324"/>
      <point x="114" y="400"/>
      <point x="214" y="400" type="curve" smooth="yes"/>
      <point x="304" y="400"/>
      <point x="386" y="334"/>
      <point x="386" y="222" type="curve" smooth="yes"/>
      <point x="386" y="123"/>
      <point x="309" y="46"/>
      <point x="213" y="46" type="curve" smooth="yes"/>
      <point x="147" y="46"/>
      <point x="94" y="67"/>
      <point x="76" y="87" type="curve"/>
      <point x="116" y="19"/>
      <point x="218" y="-50"/>
      <point x="356" y="-50" type="curve" smooth="yes"/>
      <point x="508" y="-50"/>
      <point x="532" y="100"/>
      <point x="532" y="380" type="curve" smooth="yes"/>
    </contour>
  </outline>
</glyph>
<glyph name="K" format="2">
  <advance width="1536"/>
  <unicode hex="004B"/>
  <outline>
    <contour>
      <point x="36" y="9" type="line"/>
      <point x="706" y="9" type="line"/>
      <point x="706" y="0" type="line"/>
      <point x="36" y="0" type="line"/>
    </contour>
    <contour>
      <point x="36" y="1500" type="line"/>
      <point x="726" y="1500" type="line"/>
      <point x="726" y="1491" type="line"/>
      <point x="36" y="1491" type="line"/>
    </contour>
    <contour>
      <point x="215" y="1500" type="line"/>
      <point x="526" y="1500" type="line"/>
      <point x="526" y="0" type="line"/>
      <point x="215" y="0" type="line"/>
    </contour>
    <contour>
      <point x="303" y="434" type="line"/>
      <point x="290" y="434" type="line"/>
      <point x="1198" y="1496" type="line"/>
      <point x="1211" y="1496" type="line"/>
    </contour>
    <contour>
      <point x="806" y="9" type="line"/>
      <point x="1525" y="9" type="line"/>
      <point x="1525" y="0" type="line"/>
      <point x="806" y="0" type="line"/>
    </contour>
    <contour>
      <point x="1435" y="1491" type="line"/>
      <point x="956" y="1491" type="line"/>
      <point x="956" y="1500" type="line"/>
      <point x="1435" y="1500" type="line"/>
    </contour>
    <contour>
      <point x="1370" y="0" type="line"/>
      <point x="1010" y="0" type="line"/>
      <point x="574" y="764" type="line"/>
      <point x="780" y="997" type="line"/>
    </contour>
  </outline>
</glyph>
<glyph name="L" format="2">
  <advance width="2435"/>
  <unicode hex="004C"/>
  <outline>
    <contour>
      <point x="446" y="3072" type="line"/>
      <point x="958" y="3072" type="line"/>
      <point x="958" y="0" type="line"/>
      <point x="446" y="0" type="line"/>
    </contour>
    <contour>
      <point x="78" y="3072" type="line"/>
      <point x="1326" y="3072" type="line"/>
      <point x="1326" y="3053" type="line"/>
      <point x="78" y="3053" type="line"/>
    </contour>
    <contour>
      <point x="2349" y="0" type="line"/>
      <point x="78" y="0" type="line"/>
      <point x="78" y="19" type="line"/>
      <point x="1486" y="19" type="line" smooth="yes"/>
      <point x="2108" y="19"/>
      <point x="2299" y="402"/>
      <point x="2330" y="922" type="curve"/>
      <point x="2349" y="922" type="line"/>
    </contour>
  </outline>
</glyph>
<glyph name="M" format="2">
  <advance width="1772"/>
  <unicode hex="004D"/>
  <outline>
    <contour>
      <point x="1738" y="1500" type="line"/>
      <point x="1738" y="1491" type="line"/>
      <point x="1598" y="1491" type="line"/>
      <point x="1598" y="0" type="line"/>
      <point x="1288" y="0" type="line"/>
      <point x="1288" y="1500" type="line"/>
    </contour>
    <contour>
      <point x="45" y="9" type="line"/>
      <point x="352" y="9" type="line"/>
      <point x="352" y="0" type="line"/>
      <point x="45" y="0" type="line"/>
    </contour>
    <contour>
      <point x="1128" y="9" type="line"/>
      <point x="1738" y="9" type="line"/>
      <point x="1738" y="0" type="line"/>
      <point x="1128" y="0" type="line"/>
    </contour>
    <contour>
      <point x="904" y="425" type="line"/>
      <point x="1282" y="1500" type="line"/>
      <point x="1292" y="1500" type="line"/>
      <point x="760" y="-20" type="line"/>
      <point x="748" y="-20" type="line"/>
      <point x="192" y="1500" type="line"/>
      <point x="504" y="1500" type="line"/>
    </contour>
    <contour>
      <point x="188" y="1491" type="line"/>
      <point x="36" y="1491" type="line"/>
      <point x="36" y="1500" type="line"/>
      <point x="199" y="1500" type="line"/>
      <point x="199" y="0" type="line"/>
      <point x="188" y="0" type="line"/>
    </contour>
  </outline>
</glyph>
<glyph name="N" format="2">
  <advance width="3051"/>
  <unicode hex="004E"/>
  <outline>
    <contour>
      <point x="2526" y="3072" type="line"/>
      <point x="2546" y="3072" type="line"/>
      <point x="2546" y="-41" type="line"/>
      <point x="2521" y="-41" type="line"/>
      <point x="491" y="3072" type="line"/>
      <point x="1105" y="3072" type="line"/>
      <point x="2526" y="832" type="line"/>
    </contour>
    <contour>
      <point x="2046" y="3072" type="line"/>
      <point x="2976" y="3072" type="line"/>
      <point x="2976" y="3053" type="line"/>
      <point x="2046" y="3053" type="line"/>
    </contour>
    <contour>
      <point x="78" y="19" type="line"/>
      <point x="990" y="19" type="line"/>
      <point x="990" y="0" type="line"/>
      <point x="78" y="0" type="line"/>
    </contour>
    <contour>
      <point x="485" y="3053" type="line"/>
      <point x="78" y="3053" type="line"/>
      <point x="78" y="3072" type="line"/>
      <point x="504" y="3072" type="line"/>
      <point x="504" y="0" type="line"/>
      <point x="485" y="0" type="line"/>
    </contour>
  </outline>
</glyph>
<glyph name="O" format="2">
  <advance width="3051"/>
  <unicode hex="004F"/>
  <outline>
    <contour>
      <point x="1527" y="-41" type="curve" smooth="yes"/>
      <point x="675" y="-41"/>
      <point x="174" y="654"/>
      <point x="174" y="1536" type="curve" smooth="yes"/>
      <point x="174" y="2418"/>
      <point x="715" y="3113"/>
      <point x="1527" y="3113" type="curve" smooth="yes"/>
      <point x="2339" y="3113"/>
      <point x="2878" y="2418"/>
      <point x="2878" y="1536" type="curve" smooth="yes"/>
      <point x="2878" y="654"/>
      <point x="2379" y="-41"/>
    </contour>
    <contour>
      <point x="1527" y="3095" type="curve" smooth="yes"/>
      <point x="927" y="3095"/>
      <point x="769" y="2332"/>
      <point x="769" y="1536" type="curve" smooth="yes"/>
      <point x="769" y="740"/>
      <point x="885" y="-23"/>
      <point x="1527" y="-23" type="curve" smooth="yes"/>
      <point x="2169" y="-23"/>
      <point x="2284" y="740"/>
      <point x="2284" y="1536" type="curve" smooth="yes"/>
      <point x="2284" y="2332"/>
      <point x="2127" y="3095"/>
    </contour>
  </outline>
</glyph>
<glyph name="P" format="2">
  <advance width="1352"/>
  <unicode hex="0050"/>
  <outline>
    <contour>
      <point x="215" y="1500" type="line"/>
      <point x="526" y="1500" type="line"/>
      <point x="526" y="0" type="line"/>
      <point x="215" y="0" type="line"/>
    </contour>
    <contour>
      <point x="36" y="9" type="line"/>
      <point x="705" y="9" type="line"/>
      <point x="705" y="0" type="line"/>
      <point x="36" y="0" type="line"/>
    </contour>
    <contour>
      <point x="725" y="674" type="curve" smooth="yes"/>
      <point x="436" y="674" type="line"/>
      <point x="436" y="684" type="line"/>
      <point x="685" y="684" type="line" smooth="yes"/>
      <point x="857" y="684"/>
      <point x="935" y="902"/>
      <point x="935" y="1080" type="curve" smooth="yes"/>
      <point x="935" y="1258"/>
      <point x="857" y="1491"/>
      <point x="685" y="1491" type="curve" smooth="yes"/>
      <point x="36" y="1491" type="line"/>
      <point x="36" y="1500" type="line"/>
      <point x="725" y="1500" type="line" smooth="yes"/>
      <point x="1107" y="1500"/>
      <point x="1276" y="1340"/>
      <point x="1276" y="1080" type="curve" smooth="yes"/>
      <point x="1276" y="820"/>
      <point x="1107" y="674"/>
    </contour>
  </outline>
</glyph>
<glyph name="Q" format="2">
  <advance width="1526"/>
  <unicode hex="0051"/>
  <outline>
    <contour>
      <point x="764" y="-20" type="curve" smooth="yes"/>
      <point x="338" y="-20"/>
      <point x="84" y="314"/>
      <point x="84" y="750" type="curve" smooth="yes"/>
      <point x="84" y="1186"/>
      <point x="358" y="1520"/>
      <point x="764" y="1520" type="curve" smooth="yes"/>
      <point x="1170" y="1520"/>
      <point x="1444" y="1186"/>
      <point x="1444" y="750" type="curve" smooth="yes"/>
      <point x="1444" y="314"/>
      <point x="1190" y="-20"/>
    </contour>
    <contour>
      <point x="764" y="1511" type="curve" smooth="yes"/>
      <point x="506" y="1511"/>
      <point x="434" y="1164"/>
      <point x="434" y="750" type="curve" smooth="yes"/>
      <point x="434" y="336"/>
      <point x="486" y="-11"/>
      <point x="764" y="-11" type="curve" smooth="yes"/>
      <point x="1042" y="-11"/>
      <point x="1094" y="336"/>
      <point x="1094" y="750" type="curve" smooth="yes"/>
      <point x="1094" y="1164"/>
      <point x="1022" y="1511"/>
    </contour>
    <contour>
      <point x="1164" y="-491" type="curve"/>
      <point x="1164" y="-500" type="line"/>
      <point x="668" y="-500"/>
      <point x="584" y="-388"/>
      <point x="584" y="8" type="curve"/>
      <point x="704" y="-24"/>
      <point x="818" y="-25"/>
      <point x="934" y="8" type="curve"/>
      <point x="934" y="-356"/>
      <point x="946" y="-491"/>
    </contour>
  </outline>
</glyph>
<glyph name="R" format="2">
  <advance width="1488"/>
  <unicode hex="0052"/>
  <outline>
    <contour>
      <point x="736" y="766" type="curve" smooth="yes"/>
      <point x="396" y="766" type="line"/>
      <point x="396" y="774" type="line"/>
      <point x="686" y="774" type="line" smooth="yes"/>
      <point x="878" y="774"/>
      <point x="975" y="891"/>
      <point x="975" y="1129" type="curve" smooth="yes"/>
      <point x="975" y="1367"/>
      <point x="878" y="1491"/>
      <point x="686" y="1491" type="curve" smooth="yes"/>
      <point x="36" y="1491" type="line"/>
      <point x="36" y="1500" type="line"/>
      <point x="736" y="1500" type="line" smooth="yes"/>
      <point x="1068" y="1500"/>
      <point x="1296" y="1389"/>
      <point x="1296" y="1129" type="curve" smooth="yes"/>
      <point x="1296" y="869"/>
      <point x="1088" y="766"/>
    </contour>
    <contour>
      <point x="36" y="9" type="line"/>
      <point x="745" y="9" type="line"/>
      <point x="745" y="0" type="line"/>
      <point x="36" y="0" type="line"/>
    </contour>
    <contour>
      <point x="235" y="1500" type="line"/>
      <point x="546" y="1500" type="line"/>
      <point x="546" y="0" type="line"/>
      <point x="235" y="0" type="line"/>
    </contour>
    <contour>
      <point x="1466" y="26" type="line"/>
      <point x="1434" y="8"/>
      <point x="1345" y="-15"/>
      <point x="1226" y="-15" type="curve" smooth="yes"/>
      <point x="680" y="-15"/>
      <point x="1178" y="764"/>
      <point x="686" y="764" type="curve" smooth="yes"/>
      <point x="396" y="764" type="line"/>
      <point x="396" y="772" type="line"/>
      <point x="846" y="772" type="line" smooth="yes"/>
      <point x="1500" y="772"/>
      <point x="1105" y="8"/>
      <point x="1350" y="8" type="curve" smooth="yes"/>
      <point x="1392" y="8"/>
      <point x="1434" y="21"/>
      <point x="1462" y="34" type="curve"/>
    </contour>
  </outline>
</glyph>
<glyph name="S" format="2">
  <advance width="1195"/>
  <unicode hex="0053"/>
  <outline>
    <contour>
      <point x="1038" y="1070" type="curve"/>
      <point x="1028" y="1070" type="line"/>
      <point x="948" y="1344"/>
      <point x="792" y="1508"/>
      <point x="562" y="1508" type="curve" smooth="yes"/>
      <point x="400" y="1508"/>
      <point x="317" y="1406"/>
      <point x="317" y="1268" type="curve" smooth="yes"/>
      <point x="317" y="928"/>
      <point x="1117" y="1009"/>
      <point x="1117" y="430" type="curve" smooth="yes"/>
      <point x="1117" y="150"/>
      <point x="899" y="-30"/>
      <point x="617" y="-30" type="curve" smooth="yes"/>
      <point x="305" y="-30"/>
      <point x="164" y="210"/>
      <point x="86" y="450" type="curve"/>
      <point x="96" y="450" type="line"/>
      <point x="172" y="216"/>
      <point x="316" y="-20"/>
      <point x="608" y="-20" type="curve" smooth="yes"/>
      <point x="800" y="-20"/>
      <point x="916" y="104"/>
      <point x="916" y="280" type="curve" smooth="yes"/>
      <point x="916" y="660"/>
      <point x="108" y="540"/>
      <point x="108" y="1120" type="curve" smooth="yes"/>
      <point x="108" y="1370"/>
      <point x="320" y="1520"/>
      <point x="552" y="1520" type="curve" smooth="yes"/>
      <point x="798" y="1520"/>
      <point x="958" y="1352"/>
    </contour>
    <contour>
      <point x="1030" y="1520" type="line"/>
      <point x="1038" y="1520" type="line"/>
      <point x="1038" y="1070" type="line"/>
      <point x="988" y="1204"/>
      <point x="938" y="1307"/>
      <point x="848" y="1402" type="curve"/>
    </contour>
    <contour>
      <point x="94" y="-20" type="line"/>
      <point x="86" y="-20" type="line"/>
      <point x="86" y="450" type="line"/>
      <point x="150" y="292"/>
      <point x="202" y="193"/>
      <point x="281" y="108" type="curve"/>
    </contour>
  </outline>
</glyph>
<glyph name="T" format="2">
  <advance width="2701"/>
  <unicode hex="0054"/>
  <outline>
    <contour>
      <point x="645" y="19" type="line"/>
      <point x="2058" y="19" type="line"/>
      <point x="2058" y="0" type="line"/>
      <point x="645" y="0" type="line"/>
    </contour>
    <contour>
      <point x="1095" y="3068" type="line"/>
      <point x="1608" y="3068" type="line"/>
      <point x="1608" y="0" type="line"/>
      <point x="1095" y="0" type="line"/>
    </contour>
    <contour>
      <point x="1944" y="3053" type="curve" smooth="yes"/>
      <point x="757" y="3053" type="line" smooth="yes"/>
      <point x="299" y="3053"/>
      <point x="127" y="2640"/>
      <point x="96" y="2120" type="curve"/>
      <point x="78" y="2120" type="line"/>
      <point x="78" y="3072" type="line"/>
      <point x="2626" y="3072" type="line"/>
      <point x="2626" y="2120" type="line"/>
      <point x="2606" y="2120" type="line"/>
      <point x="2575" y="2640"/>
      <point x="2402" y="3053"/>
    </contour>
  </outline>
</glyph>
<glyph name="U" format="2">
  <advance width="1450"/>
  <unicode hex="0055"/>
  <outline>
    <contour>
      <point x="1024" y="1500" type="line"/>
      <point x="1416" y="1500" type="line"/>
      <point x="1416" y="1491" type="line"/>
      <point x="1024" y="1491" type="line"/>
    </contour>
    <contour>
      <point x="35" y="1500" type="line"/>
      <point x="725" y="1500" type="line"/>
      <point x="725" y="1491" type="line"/>
      <point x="35" y="1491" type="line"/>
    </contour>
    <contour>
      <point x="1210" y="1500" type="line"/>
      <point x="1220" y="1500" type="line"/>
      <point x="1220" y="460" type="line" smooth="yes"/>
      <point x="1220" y="130"/>
      <point x="1080" y="-30"/>
      <point x="754" y="-30" type="curve" smooth="yes"/>
      <point x="378" y="-30"/>
      <point x="214" y="114"/>
      <point x="214" y="460" type="curve" smooth="yes"/>
      <point x="214" y="1500" type="line"/>
      <point x="525" y="1500" type="line"/>
      <point x="525" y="480" type="line" smooth="yes"/>
      <point x="525" y="216"/>
      <point x="572" y="-7"/>
      <point x="830" y="-7" type="curve" smooth="yes"/>
      <point x="1064" y="-7"/>
      <point x="1210" y="136"/>
      <point x="1210" y="460" type="curve" smooth="yes"/>
    </contour>
  </outline>
</glyph>
<glyph name="V" format="2">
  <advance width="1561"/>
  <unicode hex="0056"/>
  <outline>
    <contour>
      <point x="1532" y="1491" type="line"/>
      <point x="1090" y="1491" type="line"/>
      <point x="1090" y="1500" type="line"/>
      <point x="1532" y="1500" type="line"/>
    </contour>
    <contour>
      <point x="750" y="1491" type="line"/>
      <point x="30" y="1491" type="line"/>
      <point x="30" y="1500" type="line"/>
      <point x="750" y="1500" type="line"/>
    </contour>
    <contour>
      <point x="916" y="309" type="line"/>
      <point x="1342" y="1500" type="line"/>
      <point x="1354" y="1500" type="line"/>
      <point x="806" y="-30" type="line"/>
      <point x="700" y="-30" type="line"/>
      <point x="170" y="1500" type="line"/>
      <point x="530" y="1500" type="line"/>
    </contour>
  </outline>
</glyph>
<glyph name="W" format="2">
  <advance width="2203"/>
  <unicode hex="0057"/>
  <outline>
    <contour>
      <point x="1190" y="950" type="line"/>
      <point x="821" y="-20" type="line"/>
      <point x="732" y="-20" type="line"/>
      <point x="180" y="1500" type="line"/>
      <point x="532" y="1500" type="line"/>
      <point x="948" y="342" type="line"/>
      <point x="1194" y="988" type="line"/>
    </contour>
    <contour>
      <point x="1309" y="931" type="line"/>
      <point x="1306" y="954" type="line"/>
      <point x="1509" y="1500" type="line"/>
      <point x="1520" y="1500" type="line"/>
    </contour>
    <contour>
      <point x="2182" y="1491" type="line"/>
      <point x="1784" y="1491" type="line"/>
      <point x="1784" y="1500" type="line"/>
      <point x="2182" y="1500" type="line"/>
    </contour>
    <contour>
      <point x="1144" y="1500" type="line"/>
      <point x="1558" y="342" type="line"/>
      <point x="1993" y="1500" type="line"/>
      <point x="2004" y="1500" type="line"/>
      <point x="1434" y="-20" type="line"/>
      <point x="1376" y="-20" type="line"/>
      <point x="822" y="1500" type="line"/>
    </contour>
    <contour>
      <point x="1694" y="1491" type="line"/>
      <point x="22" y="1491" type="line"/>
      <point x="22" y="1500" type="line"/>
      <point x="1694" y="1500" type="line"/>
    </contour>
  </outline>
</glyph>
<glyph name="X" format="2">
  <advance width="3127"/>
  <unicode hex="0058"/>
  <outline>
    <contour>
      <point x="1578" y="1544" type="line"/>
      <point x="1552" y="1544" type="line"/>
      <point x="2473" y="3064" type="line"/>
      <point x="2497" y="3064" type="line"/>
    </contour>
    <contour>
      <point x="510" y="0" type="line"/>
      <point x="485" y="0" type="line"/>
      <point x="1578" y="1708" type="line"/>
      <point x="1604" y="1708" type="line"/>
    </contour>
    <contour>
      <point x="1806" y="19" type="line"/>
      <point x="3080" y="19" type="line"/>
      <point x="3080" y="0" type="line"/>
      <point x="1806" y="0" type="line"/>
    </contour>
    <contour>
      <point x="46" y="19" type="line"/>
      <point x="1026" y="19" type="line"/>
      <point x="1026" y="0" type="line"/>
      <point x="46" y="0" type="line"/>
    </contour>
    <contour>
      <point x="1458" y="3053" type="line"/>
      <point x="188" y="3053" type="line"/>
      <point x="188" y="3072" type="line"/>
      <point x="1458" y="3072" type="line"/>
    </contour>
    <contour>
      <point x="2854" y="3053" type="line"/>
      <point x="1956" y="3053" type="line"/>
      <point x="1956" y="3072" type="line"/>
      <point x="2854" y="3072" type="line"/>
    </contour>
    <contour>
      <point x="2818" y="0" type="line"/>
      <point x="2203" y="0" type="line"/>
      <point x="434" y="3072" type="line"/>
      <point x="1032" y="3072" type="line"/>
    </contour>
  </outline>
</glyph>
<glyph name="Y" format="2">
  <advance width="1473"/>
  <unicode hex="0059"/>
  <outline>
    <contour>
      <point x="1452" y="1491" type="line"/>
      <point x="1032" y="1491" type="line"/>
      <point x="1032" y="1500" type="line"/>
      <point x="1452" y="1500" type="line"/>
    </contour>
    <contour>
      <point x="722" y="1491" type="line"/>
      <point x="22" y="1491" type="line"/>
      <point x="22" y="1500" type="line"/>
      <point x="722" y="1500" type="line"/>
    </contour>
    <contour>
      <point x="422" y="9" type="line"/>
      <point x="1112" y="9" type="line"/>
      <point x="1112" y="0" type="line"/>
      <point x="422" y="0" type="line"/>
    </contour>
    <contour>
      <point x="906" y="776" type="line"/>
      <point x="1266" y="1496" type="line"/>
      <point x="1278" y="1496" type="line"/>
      <point x="912" y="766" type="line"/>
      <point x="912" y="0" type="line"/>
      <point x="601" y="0" type="line"/>
      <point x="601" y="720" type="line"/>
      <point x="150" y="1500" type="line"/>
      <point x="510" y="1500" type="line"/>
    </contour>
  </outline>
</glyph>
<glyph name="Z" format="2">
  <advance width="1226"/>
  <unicode hex="005A"/>
  <outline>
    <contour>
      <point x="66" y="1500" type="line"/>
      <point x="1146" y="1500" type="line"/>
      <point x="1146" y="1491" type="line"/>
      <point x="376" y="9" type="line"/>
      <point x="744" y="9" type="line" smooth="yes"/>
      <point x="1018" y="9"/>
      <point x="1116" y="156"/>
      <point x="1156" y="410" type="curve"/>
      <point x="1165" y="410" type="line"/>
      <point x="1165" y="0" type="line"/>
      <point x="26" y="0" type="line"/>
      <point x="26" y="9" type="line"/>
      <point x="796" y="1491" type="line"/>
      <point x="488" y="1491" type="line" smooth="yes"/>
      <point x="214" y="1491"/>
      <point x="116" y="1344"/>
      <point x="76" y="1130" type="curve"/>
      <point x="66" y="1130" type="line"/>
    </contour>
  </outline>
</glyph>
<glyph name="bracketleft" format="2">
  <advance width="1453"/>
  <unicode hex="005B"/>
  <outline>
    <contour>
      <point x="1331" y="-614" type="line"/>
      <point x="225.5" y="-614" type="line"/>
      <point x="225.5" y="-595" type="line"/>
      <point x="1331" y="-595" type="line"/>
    </contour>
    <contour>
      <point x="1331" y="3175" type="line"/>
      <point x="225.5" y="3175" type="line"/>
      <point x="225.5" y="3194.5" type="line"/>
      <point x="1331" y="3194.5" type="line"/>
    </contour>
    <contour>
      <point x="840" y="3194.5" type="line"/>
      <point x="840" y="-614" type="line"/>
      <point x="225.5" y="-614" type="line"/>
      <point x="225.5" y="3194.5" type="line"/>
    </contour>
  </outline>
</glyph>
<glyph name="backslash" format="2">
  <advance width="2130"/>
  <unicode hex="005C"/>
  <outline>
    <contour>
      <point x="184" y="3194.5" type="line"/>
      <point x="1968.5" y="-614" type="line"/>
      <point x="1948.5" y="-614" type="line"/>
      <point x="164" y="3194.5" type="line"/>
    </contour>
  </outline>
</glyph>
<glyph name="grave" format="2">
  <advance width="819"/>
  <unicode hex="0060"/>
  <outline>
    <contour>
      <point x="240" y="1401" type="line" smooth="yes"/>
      <point x="172" y="1390"/>
      <point x="110" y="1442"/>
      <point x="110" y="1510" type="curve" smooth="yes"/>
      <point x="110" y="1578"/>
      <point x="183" y="1646"/>
      <point x="260" y="1616" type="curve" smooth="yes"/>
      <point x="704" y="1454" type="line"/>
      <point x="700" y="1446" type="line"/>
    </contour>
  </outline>
</glyph>
<glyph name="a" format="2">
  <advance width="1175"/>
  <unicode hex="0061"/>
  <outline>
    <contour>
      <point x="1162" y="123" type="line"/>
      <point x="1116" y="26"/>
      <point x="1015" y="-20"/>
      <point x="899" y="-20" type="curve" smooth="yes"/>
      <point x="775" y="-20"/>
      <point x="666" y="19"/>
      <point x="666" y="156" type="curve" smooth="yes"/>
      <point x="666" y="610" type="line" smooth="yes"/>
      <point x="666" y="764"/>
      <point x="626" y="922"/>
      <point x="476" y="922" type="curve" smooth="yes"/>
      <point x="366" y="922"/>
      <point x="266" y="875"/>
      <point x="227" y="842" type="curve"/>
      <point x="362" y="896"/>
      <point x="474" y="820"/>
      <point x="474" y="726" type="curve" smooth="yes"/>
      <point x="474" y="636"/>
      <point x="386" y="582"/>
      <point x="306" y="582" type="curve" smooth="yes"/>
      <point x="216" y="582"/>
      <point x="152" y="640"/>
      <point x="152" y="722" type="curve" smooth="yes"/>
      <point x="152" y="851"/>
      <point x="327" y="936"/>
      <point x="529" y="936" type="curve" smooth="yes"/>
      <point x="858" y="936"/>
      <point x="945" y="792"/>
      <point x="945" y="610" type="curve" smooth="yes"/>
      <point x="945" y="92" type="line" smooth="yes"/>
      <point x="945" y="48"/>
      <point x="970" y="18"/>
      <point x="1018" y="18" type="curve" smooth="yes"/>
      <point x="1050" y="18"/>
      <point x="1116" y="46"/>
      <point x="1156" y="126" type="curve"/>
    </contour>
    <contour>
      <point x="521" y="506" type="curve" smooth="yes"/>
      <point x="769" y="506" type="line"/>
      <point x="769" y="497" type="line"/>
      <point x="590" y="497" type="line" smooth="yes"/>
      <point x="467" y="497"/>
      <point x="386" y="382"/>
      <point x="386" y="250" type="curve" smooth="yes"/>
      <point x="386" y="130"/>
      <point x="428" y="62"/>
      <point x="498" y="62" type="curve" smooth="yes"/>
      <point x="578" y="62"/>
      <point x="666" y="133"/>
      <point x="666" y="362" type="curve"/>
      <point x="674" y="362" type="line"/>
      <point x="674" y="114"/>
      <point x="575" y="-20"/>
      <point x="354" y="-20" type="curve" smooth="yes"/>
      <point x="196" y="-20"/>
      <point x="82" y="78"/>
      <point x="82" y="226" type="curve" smooth="yes"/>
      <point x="82" y="394"/>
      <point x="228" y="506"/>
    </contour>
  </outline>
</glyph>
<glyph name="c" format="2">
  <advance width="1048"/>
  <unicode hex="0063"/>
  <outline>
    <contour>
      <point x="924" y="762" type="curve"/>
      <point x="883" y="851"/>
      <point x="750" y="927"/>
      <point x="616" y="927" type="curve" smooth="yes"/>
      <point x="428" y="927"/>
      <point x="404" y="648"/>
      <point x="404" y="460" type="curve" smooth="yes"/>
      <point x="404" y="232"/>
      <point x="448" y="0"/>
      <point x="616" y="0" type="curve" smooth="yes"/>
      <point x="784" y="0"/>
      <point x="898" y="116"/>
      <point x="950" y="284" type="curve"/>
      <point x="960" y="284" type="line"/>
      <point x="908" y="111"/>
      <point x="792" y="-20"/>
      <point x="570" y="-20" type="curve" smooth="yes"/>
      <point x="278" y="-20"/>
      <point x="74" y="140"/>
      <point x="74" y="460" type="curve" smooth="yes"/>
      <point x="74" y="740"/>
      <point x="249" y="940"/>
      <point x="581" y="940" type="curve" smooth="yes"/>
      <point x="795" y="940"/>
      <point x="958" y="820"/>
      <point x="958" y="668" type="curve" smooth="yes"/>
      <point x="958" y="566"/>
      <point x="890" y="510"/>
      <point x="800" y="510" type="curve" smooth="yes"/>
      <point x="720" y="510"/>
      <point x="635" y="552"/>
      <point x="635" y="667" type="curve" smooth="yes"/>
      <point x="635" y="767"/>
      <point x="719" y="816"/>
      <point x="786" y="816" type="curve" smooth="yes"/>
      <point x="848" y="816"/>
      <point x="903" y="791"/>
    </contour>
  </outline>
</glyph>
<glyph name="d" format="2">
  <advance width="1262"/>
  <unicode hex="0064"/>
  <outline>
    <contour>
      <point x="817" y="458" type="curve" smooth="yes"/>
      <point x="817" y="156"/>
      <point x="704" y="-19"/>
      <point x="497" y="-19" type="curve" smooth="yes"/>
      <point x="279" y="-19"/>
      <point x="74" y="158"/>
      <point x="74" y="458" type="curve" smooth="yes"/>
      <point x="74" y="758"/>
      <point x="279" y="939"/>
      <point x="497" y="939" type="curve" smooth="yes"/>
      <point x="703" y="939"/>
      <point x="817" y="760"/>
    </contour>
    <contour>
      <point x="810" y="458" type="curve" smooth="yes"/>
      <point x="810" y="762"/>
      <point x="683" y="910"/>
      <point x="559" y="910" type="curve" smooth="yes"/>
      <point x="442" y="910"/>
      <point x="394" y="748"/>
      <point x="394" y="458" type="curve" smooth="yes"/>
      <point x="394" y="168"/>
      <point x="443" y="11"/>
      <point x="560" y="11" type="curve" smooth="yes"/>
      <point x="684" y="11"/>
      <point x="810" y="154"/>
    </contour>
    <contour>
      <point x="1220" y="9" type="line"/>
      <point x="1220" y="0" type="line"/>
      <point x="810" y="0" type="line"/>
      <point x="810" y="1491" type="line"/>
      <point x="678" y="1491" type="line"/>
      <point x="678" y="1500" type="line"/>
      <point x="1089" y="1500" type="line"/>
      <point x="1089" y="9" type="line"/>
    </contour>
  </outline>
</glyph>
<glyph name="e" format="2">
  <advance width="1064"/>
  <unicode hex="0065"/>
  <outline>
    <contour>
      <point x="208" y="519" type="line"/>
      <point x="208" y="529" type="line"/>
      <point x="698" y="529" type="line"/>
      <point x="698" y="702"/>
      <point x="684" y="930"/>
      <point x="557" y="930" type="curve" smooth="yes"/>
      <point x="419" y="930"/>
      <point x="383" y="708"/>
      <point x="383" y="480" type="curve" smooth="yes"/>
      <point x="383" y="222"/>
      <point x="425" y="-1"/>
      <point x="612" y="-1" type="curve" smooth="yes"/>
      <point x="800" y="-1"/>
      <point x="938" y="120"/>
      <point x="988" y="284" type="curve"/>
      <point x="998" y="284" type="line"/>
      <point x="946" y="111"/>
      <point x="806" y="-20"/>
      <point x="564" y="-20" type="curve" smooth="yes"/>
      <point x="282" y="-20"/>
      <point x="74" y="150"/>
      <point x="74" y="460" type="curve" smooth="yes"/>
      <point x="74" y="770"/>
      <point x="275" y="940"/>
      <point x="557" y="940" type="curve" smooth="yes"/>
      <point x="855" y="940"/>
      <point x="995" y="737"/>
      <point x="995" y="519" type="curve"/>
    </contour>
  </outline>
</glyph>
<glyph name="f" format="2">
  <advance width="797"/>
  <unicode hex="0066"/>
  <outline>
    <contour>
      <point x="34" y="9" type="line"/>
      <point x="706" y="9" type="line"/>
      <point x="706" y="0" type="line"/>
      <point x="34" y="0" type="line"/>
    </contour>
    <contour>
      <point x="34" y="920" type="line"/>
      <point x="746" y="920" type="line"/>
      <point x="746" y="911" type="line"/>
      <point x="34" y="911" type="line"/>
    </contour>
    <contour>
      <point x="942" y="1360" type="curve"/>
      <point x="918" y="1426"/>
      <point x="844" y="1510"/>
      <point x="690" y="1510" type="curve" smooth="yes"/>
      <point x="530" y="1510"/>
      <point x="474" y="1334"/>
      <point x="474" y="1080" type="curve" smooth="yes"/>
      <point x="474" y="0" type="line"/>
      <point x="205" y="0" type="line"/>
      <point x="205" y="1024" type="line" smooth="yes"/>
      <point x="205" y="1306"/>
      <point x="398" y="1520"/>
      <point x="688" y="1520" type="curve" smooth="yes"/>
      <point x="860" y="1520"/>
      <point x="964" y="1406"/>
      <point x="964" y="1292" type="curve" smooth="yes"/>
      <point x="964" y="1190"/>
      <point x="900" y="1128"/>
      <point x="810" y="1128" type="curve" smooth="yes"/>
      <point x="730" y="1128"/>
      <point x="648" y="1180"/>
      <point x="648" y="1278" type="curve" smooth="yes"/>
      <point x="648" y="1373"/>
      <point x="722" y="1430"/>
      <point x="802" y="1430" type="curve" smooth="yes"/>
      <point x="863" y="1430"/>
      <point x="914" y="1402"/>
    </contour>
  </outline>
</glyph>
<glyph name="g" format="2">
  <advance width="2474"/>
  <unicode hex="0067"/>
  <outline>
    <contour>
      <point x="242" y="286" type="curve" smooth="yes"/>
      <point x="242" y="592"/>
      <point x="675" y="693"/>
      <point x="1008" y="693" type="curve"/>
      <point x="1007" y="678" type="line"/>
      <point x="831" y="678"/>
      <point x="563" y="615"/>
      <point x="563" y="452" type="curve" smooth="yes"/>
      <point x="563" y="316"/>
      <point x="745" y="314"/>
      <point x="970" y="314" type="curve" smooth="yes"/>
      <point x="1113" y="314"/>
      <point x="1183" y="318"/>
      <point x="1298" y="318" type="curve" smooth="yes"/>
      <point x="1605" y="318"/>
      <point x="1966" y="221"/>
      <point x="1966" y="-336" type="curve" smooth="yes"/>
      <point x="1966" y="-835"/>
      <point x="1549" y="-1065"/>
      <point x="1046" y="-1065" type="curve" smooth="yes"/>
      <point x="570" y="-1065"/>
      <point x="112" y="-911"/>
      <point x="112" y="-531" type="curve" smooth="yes"/>
      <point x="112" y="-167"/>
      <point x="540" y="-74"/>
      <point x="724" y="-74" type="curve" smooth="yes"/>
      <point x="741" y="-74" type="line"/>
      <point x="577" y="-162"/>
      <point x="550" y="-322"/>
      <point x="550" y="-438" type="curve" smooth="yes"/>
      <point x="550" y="-736"/>
      <point x="714" y="-1040"/>
      <point x="1088" y="-1040" type="curve" smooth="yes"/>
      <point x="1486" y="-1040"/>
      <point x="1882" y="-844"/>
      <point x="1882" y="-472" type="curve" smooth="yes"/>
      <point x="1882" y="-193"/>
      <point x="1582" y="-88"/>
      <point x="1316" y="-88" type="curve" smooth="yes"/>
      <point x="1220" y="-88"/>
      <point x="996" y="-88"/>
      <point x="906" y="-88" type="curve" smooth="yes"/>
      <point x="537" y="-88"/>
      <point x="242" y="1"/>
    </contour>
    <contour>
      <point x="705" y="1290" type="curve" smooth="yes"/>
      <point x="705" y="966"/>
      <point x="727" y="694"/>
      <point x="1000" y="694" type="curve" smooth="yes"/>
      <point x="1201" y="694"/>
      <point x="1293" y="966"/>
      <point x="1293" y="1290" type="curve" smooth="yes"/>
      <point x="1293" y="1614"/>
      <point x="1201" y="1905"/>
      <point x="1000" y="1905" type="curve" smooth="yes"/>
      <point x="799" y="1905"/>
      <point x="705" y="1614"/>
    </contour>
    <contour>
      <point x="214" y="1290" type="curve" smooth="yes"/>
      <point x="214" y="1741"/>
      <point x="637" y="1925"/>
      <point x="1000" y="1925" type="curve" smooth="yes"/>
      <point x="1363" y="1925"/>
      <point x="1782" y="1741"/>
      <point x="1782" y="1290" type="curve" smooth="yes"/>
      <point x="1782" y="839"/>
      <point x="1363" y="675"/>
      <point x="1000" y="675" type="curve" smooth="yes"/>
      <point x="637" y="675"/>
      <point x="214" y="839"/>
    </contour>
    <contour>
      <point x="2359" y="1638" type="curve"/>
      <point x="2341" y="1762"/>
      <point x="2232" y="1886"/>
      <point x="2024" y="1886" type="curve" smooth="yes"/>
      <point x="1838" y="1886"/>
      <point x="1594" y="1771"/>
      <point x="1512" y="1417" type="curve"/>
      <point x="1495" y="1423" type="line"/>
      <point x="1577" y="1794"/>
      <point x="1840" y="1905"/>
      <point x="2024" y="1905" type="curve" smooth="yes"/>
      <point x="2262" y="1905"/>
      <point x="2386" y="1744"/>
      <point x="2386" y="1588" type="curve" smooth="yes"/>
      <point x="2386" y="1384"/>
      <point x="2264" y="1318"/>
      <point x="2152" y="1318" type="curve" smooth="yes"/>
      <point x="2040" y="1318"/>
      <point x="1921" y="1392"/>
      <point x="1921" y="1548" type="curve" smooth="yes"/>
      <point x="1921" y="1672"/>
      <point x="2022" y="1764"/>
      <point x="2148" y="1764" type="curve" smooth="yes"/>
      <point x="2244" y="1764"/>
      <point x="2337" y="1710"/>
    </contour>
  </outline>
</glyph>
<glyph name="h" format="2">
  <advance width="1237"/>
  <unicode hex="0068"/>
  <outline>
    <contour>
      <point x="784" y="632" type="line" smooth="yes"/>
      <point x="784" y="800"/>
      <point x="770" y="882"/>
      <point x="686" y="882" type="curve" smooth="yes"/>
      <point x="498" y="882"/>
      <point x="454" y="627"/>
      <point x="454" y="446" type="curve"/>
      <point x="446" y="442" type="line"/>
      <point x="446" y="639"/>
      <point x="482" y="940"/>
      <point x="780" y="940" type="curve" smooth="yes"/>
      <point x="1004" y="940"/>
      <point x="1064" y="812"/>
      <point x="1064" y="638" type="curve" smooth="yes"/>
      <point x="1064" y="0" type="line"/>
      <point x="784" y="0" type="line"/>
    </contour>
    <contour>
      <point x="684" y="9" type="line"/>
      <point x="1196" y="9" type="line"/>
      <point x="1196" y="0" type="line"/>
      <point x="684" y="0" type="line"/>
    </contour>
    <contour>
      <point x="44" y="9" type="line"/>
      <point x="556" y="9" type="line"/>
      <point x="556" y="0" type="line"/>
      <point x="44" y="0" type="line"/>
    </contour>
    <contour>
      <point x="175" y="1491" type="line"/>
      <point x="44" y="1491" type="line"/>
      <point x="44" y="1500" type="line"/>
      <point x="454" y="1500" type="line"/>
      <point x="454" y="0" type="line"/>
      <point x="175" y="0" type="line"/>
    </contour>
  </outline>
</glyph>
<glyph name="i" format="2">
  <advance width="632"/>
  <unicode hex="0069"/>
  <outline>
    <contour>
      <point x="54" y="9" type="line"/>
      <point x="596" y="9" type="line"/>
      <point x="596" y="0" type="line"/>
      <point x="54" y="0" type="line"/>
    </contour>
    <contour>
      <point x="134" y="1350" type="curve" smooth="yes"/>
      <point x="134" y="1446"/>
      <point x="208" y="1520"/>
      <point x="304" y="1520" type="curve" smooth="yes"/>
      <point x="400" y="1520"/>
      <point x="474" y="1446"/>
      <point x="474" y="1350" type="curve" smooth="yes"/>
      <point x="474" y="1254"/>
      <point x="400" y="1180"/>
      <point x="304" y="1180" type="curve" smooth="yes"/>
      <point x="208" y="1180"/>
      <point x="134" y="1254"/>
    </contour>
    <contour>
      <point x="184" y="911" type="line"/>
      <point x="54" y="911" type="line"/>
      <point x="54" y="920" type="line"/>
      <point x="464" y="920" type="line"/>
      <point x="464" y="0" type="line"/>
      <point x="184" y="0" type="line"/>
    </contour>
  </outline>
</glyph>
<glyph name="j" format="2">
  <advance width="650"/>
  <unicode hex="006A"/>
  <outline>
    <contour>
      <point x="169" y="1350" type="curve" smooth="yes"/>
      <point x="169" y="1446"/>
      <point x="242" y="1520"/>
      <point x="338" y="1520" type="curve" smooth="yes"/>
      <point x="434" y="1520"/>
      <point x="508" y="1446"/>
      <point x="508" y="1350" type="curve" smooth="yes"/>
      <point x="508" y="1254"/>
      <point x="434" y="1180"/>
      <point x="338" y="1180" type="curve" smooth="yes"/>
      <point x="242" y="1180"/>
      <point x="169" y="1254"/>
    </contour>
    <contour>
      <point x="494" y="920" type="line"/>
      <point x="494" y="-24" type="line" smooth="yes"/>
      <point x="494" y="-286"/>
      <point x="341" y="-520"/>
      <point x="61" y="-520" type="curve" smooth="yes"/>
      <point x="-121" y="-520"/>
      <point x="-245" y="-414"/>
      <point x="-245" y="-282" type="curve" smooth="yes"/>
      <point x="-245" y="-181"/>
      <point x="-169" y="-118"/>
      <point x="-82" y="-118" type="curve" smooth="yes"/>
      <point x="-2" y="-118"/>
      <point x="80" y="-166"/>
      <point x="80" y="-266" type="curve" smooth="yes"/>
      <point x="80" y="-360"/>
      <point x="13" y="-418"/>
      <point x="-90" y="-418" type="curve" smooth="yes"/>
      <point x="-166" y="-418"/>
      <point x="-216" y="-373"/>
      <point x="-230" y="-325" type="curve"/>
      <point x="-211" y="-415"/>
      <point x="-108" y="-506"/>
      <point x="36" y="-506" type="curve" smooth="yes"/>
      <point x="246" y="-506"/>
      <point x="210" y="-212"/>
      <point x="210" y="42" type="curve" smooth="yes"/>
      <point x="215" y="911" type="line"/>
      <point x="44" y="911" type="line"/>
      <point x="44" y="920" type="line"/>
    </contour>
  </outline>
</glyph>
<glyph name="k" format="2">
  <advance width="1278"/>
  <unicode hex="006B"/>
  <outline>
    <contour>
      <point x="1180" y="0" type="line"/>
      <point x="835" y="0" type="line"/>
      <point x="439" y="532" type="line"/>
      <point x="983" y="920" type="line"/>
      <point x="996" y="920" type="line"/>
      <point x="657" y="672" type="line"/>
    </contour>
    <contour>
      <point x="702" y="9" type="line"/>
      <point x="1257" y="9" type="line"/>
      <point x="1257" y="0" type="line"/>
      <point x="702" y="0" type="line"/>
    </contour>
    <contour>
      <point x="1158" y="911" type="line"/>
      <point x="730" y="911" type="line"/>
      <point x="730" y="920" type="line"/>
      <point x="1158" y="920" type="line"/>
    </contour>
    <contour>
      <point x="44" y="9" type="line"/>
      <point x="604" y="9" type="line"/>
      <point x="604" y="0" type="line"/>
      <point x="44" y="0" type="line"/>
    </contour>
    <contour>
      <point x="215" y="1491" type="line"/>
      <point x="44" y="1491" type="line"/>
      <point x="44" y="1500" type="line"/>
      <point x="494" y="1500" type="line"/>
      <point x="494" y="0" type="line"/>
      <point x="215" y="0" type="line"/>
    </contour>
  </outline>
</glyph>
<glyph name="l" format="2">
  <advance width="1372"/>
  <unicode hex="006C"/>
  <outline>
    <contour>
      <point x="112" y="19" type="line"/>
      <point x="1264" y="19" type="line"/>
      <point x="1264" y="0" type="line"/>
      <point x="112" y="0" type="line"/>
    </contour>
    <contour>
      <point x="453" y="3053" type="line"/>
      <point x="112" y="3053" type="line"/>
      <point x="112" y="3072" type="line"/>
      <point x="923" y="3072" type="line"/>
      <point x="923" y="0" type="line"/>
      <point x="453" y="0" type="line"/>
    </contour>
  </outline>
</glyph>
<glyph name="m" format="2">
  <advance width="1767"/>
  <unicode hex="006D"/>
  <outline>
    <contour>
      <point x="1024" y="638" type="curve" smooth="yes"/>
      <point x="1024" y="0" type="line"/>
      <point x="745" y="0" type="line"/>
      <point x="745" y="633" type="line" smooth="yes"/>
      <point x="745" y="801"/>
      <point x="730" y="884"/>
      <point x="656" y="884" type="curve" smooth="yes"/>
      <point x="502" y="884"/>
      <point x="454" y="640"/>
      <point x="454" y="447" type="curve"/>
      <point x="446" y="442" type="line"/>
      <point x="446" y="639"/>
      <point x="476" y="940"/>
      <point x="756" y="940" type="curve" smooth="yes"/>
      <point x="957" y="940"/>
      <point x="1024" y="812"/>
    </contour>
    <contour>
      <point x="44" y="9" type="line"/>
      <point x="550" y="9" type="line"/>
      <point x="550" y="0" type="line"/>
      <point x="44" y="0" type="line"/>
    </contour>
    <contour>
      <point x="649" y="9" type="line"/>
      <point x="1120" y="9" type="line"/>
      <point x="1120" y="0" type="line"/>
      <point x="649" y="0" type="line"/>
    </contour>
    <contour>
      <point x="1219" y="9" type="line"/>
      <point x="1725" y="9" type="line"/>
      <point x="1725" y="0" type="line"/>
      <point x="1219" y="0" type="line"/>
    </contour>
    <contour>
      <point x="175" y="911" type="line"/>
      <point x="44" y="911" type="line"/>
      <point x="44" y="920" type="line"/>
      <point x="454" y="920" type="line"/>
      <point x="454" y="0" type="line"/>
      <point x="175" y="0" type="line"/>
    </contour>
    <contour>
      <point x="1594" y="638" type="curve" smooth="yes"/>
      <point x="1594" y="0" type="line"/>
      <point x="1314" y="0" type="line"/>
      <point x="1314" y="633" type="line" smooth="yes"/>
      <point x="1314" y="801"/>
      <point x="1300" y="884"/>
      <point x="1226" y="884" type="curve" smooth="yes"/>
      <point x="1072" y="884"/>
      <point x="1024" y="640"/>
      <point x="1024" y="447" type="curve"/>
      <point x="1016" y="442" type="line"/>
      <point x="1016" y="639"/>
      <point x="1044" y="940"/>
      <point x="1326" y="940" type="curve" smooth="yes"/>
      <point x="1527" y="940"/>
      <point x="1594" y="812"/>
    </contour>
  </outline>
</glyph>
<glyph name="o" format="2">
  <advance width="1122"/>
  <unicode hex="006F"/>
  <outline>
    <contour>
      <point x="374" y="460" type="curve" smooth="yes"/>
      <point x="374" y="222"/>
      <point x="414" y="-10"/>
      <point x="562" y="-10" type="curve" smooth="yes"/>
      <point x="710" y="-10"/>
      <point x="750" y="222"/>
      <point x="750" y="460" type="curve" smooth="yes"/>
      <point x="750" y="698"/>
      <point x="710" y="930"/>
      <point x="562" y="930" type="curve" smooth="yes"/>
      <point x="414" y="930"/>
      <point x="374" y="698"/>
    </contour>
    <contour>
      <point x="74" y="460" type="curve" smooth="yes"/>
      <point x="74" y="720"/>
      <point x="260" y="940"/>
      <point x="562" y="940" type="curve" smooth="yes"/>
      <point x="864" y="940"/>
      <point x="1050" y="720"/>
      <point x="1050" y="460" type="curve" smooth="yes"/>
      <point x="1050" y="200"/>
      <point x="864" y="-20"/>
      <point x="562" y="-20" type="curve" smooth="yes"/>
      <point x="260" y="-20"/>
      <point x="74" y="200"/>
    </contour>
  </outline>
</glyph>
<glyph name="p" format="2">
  <advance width="2518"/>
  <unicode hex="0070"/>
  <outline>
    <contour>
      <point x="824" y="942" type="curve" smooth="yes"/>
      <point x="824" y="1557"/>
      <point x="1061" y="1921"/>
      <point x="1481" y="1921" type="curve" smooth="yes"/>
      <point x="1925" y="1921"/>
      <point x="2348" y="1556"/>
      <point x="2348" y="942" type="curve" smooth="yes"/>
      <point x="2348" y="328"/>
      <point x="1925" y="-41"/>
      <point x="1481" y="-41" type="curve" smooth="yes"/>
      <point x="1061" y="-41"/>
      <point x="824" y="327"/>
    </contour>
    <contour>
      <point x="841" y="942" type="curve" smooth="yes"/>
      <point x="841" y="322"/>
      <point x="1100" y="9"/>
      <point x="1386" y="9" type="curve" smooth="yes"/>
      <point x="1678" y="9"/>
      <point x="1806" y="376"/>
      <point x="1806" y="942" type="curve" smooth="yes"/>
      <point x="1806" y="1508"/>
      <point x="1679" y="1871"/>
      <point x="1387" y="1871" type="curve" smooth="yes"/>
      <point x="1100" y="1871"/>
      <point x="841" y="1562"/>
    </contour>
    <contour>
      <point x="112" y="-1005" type="line"/>
      <point x="1100" y="-1005" type="line"/>
      <point x="1100" y="-1024" type="line"/>
      <point x="112" y="-1024" type="line"/>
    </contour>
    <contour>
      <point x="371" y="1865" type="line"/>
      <point x="112" y="1865" type="line"/>
      <point x="112" y="1884" type="line"/>
      <point x="841" y="1884" type="line"/>
      <point x="841" y="-1024" type="line"/>
      <point x="371" y="-1024" type="line"/>
    </contour>
  </outline>
</glyph>
<glyph name="q" format="2">
  <advance width="1262"/>
  <unicode hex="0071"/>
  <outline>
    <contour>
      <point x="817" y="458" type="curve" smooth="yes"/>
      <point x="817" y="156"/>
      <point x="704" y="-19"/>
      <point x="497" y="-19" type="curve" smooth="yes"/>
      <point x="279" y="-19"/>
      <point x="74" y="158"/>
      <point x="74" y="458" type="curve" smooth="yes"/>
      <point x="74" y="758"/>
      <point x="279" y="939"/>
      <point x="497" y="939" type="curve" smooth="yes"/>
      <point x="703" y="939"/>
      <point x="817" y="760"/>
    </contour>
    <contour>
      <point x="810" y="458" type="curve" smooth="yes"/>
      <point x="810" y="762"/>
      <point x="683" y="910"/>
      <point x="559" y="910" type="curve" smooth="yes"/>
      <point x="442" y="910"/>
      <point x="394" y="743"/>
      <point x="394" y="458" type="curve" smooth="yes"/>
      <point x="394" y="173"/>
      <point x="442" y="11"/>
      <point x="559" y="11" type="curve" smooth="yes"/>
      <point x="687" y="11"/>
      <point x="810" y="154"/>
    </contour>
    <contour>
      <point x="1220" y="-491" type="line"/>
      <point x="1220" y="-500" type="line"/>
      <point x="678" y="-500" type="line"/>
      <point x="678" y="-491" type="line"/>
    </contour>
    <contour>
      <point x="1220" y="920" type="line"/>
      <point x="1220" y="911" type="line"/>
      <point x="1089" y="911" type="line"/>
      <point x="1089" y="-500" type="line"/>
      <point x="810" y="-500" type="line"/>
      <point x="810" y="920" type="line"/>
    </contour>
  </outline>
</glyph>
<glyph name="r" format="2">
  <advance width="974"/>
  <unicode hex="0072"/>
  <outline>
    <contour>
      <point x="916" y="798" type="curve"/>
      <point x="884" y="884"/>
      <point x="796" y="930"/>
      <point x="714" y="930" type="curve" smooth="yes"/>
      <point x="479" y="930"/>
      <point x="454" y="666"/>
      <point x="454" y="444" type="curve"/>
      <point x="446" y="444" type="line"/>
      <point x="446" y="687"/>
      <point x="475" y="940"/>
      <point x="716" y="940" type="curve" smooth="yes"/>
      <point x="828" y="940"/>
      <point x="940" y="856"/>
      <point x="940" y="729" type="curve" smooth="yes"/>
      <point x="940" y="636"/>
      <point x="880" y="557"/>
      <point x="774" y="557" type="curve" smooth="yes"/>
      <point x="678" y="557"/>
      <point x="606" y="618"/>
      <point x="606" y="716" type="curve" smooth="yes"/>
      <point x="606" y="873"/>
      <point x="821" y="942"/>
    </contour>
    <contour>
      <point x="44" y="9" type="line"/>
      <point x="586" y="9" type="line"/>
      <point x="586" y="0" type="line"/>
      <point x="44" y="0" type="line"/>
    </contour>
    <contour>
      <point x="175" y="911" type="line"/>
      <point x="44" y="911" type="line"/>
      <point x="44" y="920" type="line"/>
      <point x="454" y="920" type="line"/>
      <point x="454" y="0" type="line"/>
      <point x="175" y="0" type="line"/>
    </contour>
  </outline>
</glyph>
<glyph name="s" format="2">
  <advance width="904"/>
  <unicode hex="0073"/>
  <outline>
    <contour>
      <point x="732" y="746" type="curve"/>
      <point x="706" y="788"/>
      <point x="674" y="821"/>
      <point x="641" y="852" type="curve"/>
      <point x="764" y="940" type="line"/>
      <point x="772" y="940" type="line"/>
      <point x="772" y="660" type="line"/>
      <point x="764" y="660" type="line"/>
      <point x="756" y="690"/>
      <point x="748" y="719"/>
    </contour>
    <contour>
      <point x="770" y="660" type="curve"/>
      <point x="763" y="660" type="line"/>
      <point x="723" y="787"/>
      <point x="606" y="928"/>
      <point x="417" y="928" type="curve" smooth="yes"/>
      <point x="307" y="928"/>
      <point x="234" y="876"/>
      <point x="234" y="798" type="curve" smooth="yes"/>
      <point x="234" y="584"/>
      <point x="841" y="668"/>
      <point x="841" y="294" type="curve" smooth="yes"/>
      <point x="841" y="86"/>
      <point x="664" y="-20"/>
      <point x="480" y="-20" type="curve" smooth="yes"/>
      <point x="282" y="-20"/>
      <point x="138" y="105"/>
      <point x="88" y="291" type="curve"/>
      <point x="96" y="291" type="line"/>
      <point x="147" y="109"/>
      <point x="291" y="-9"/>
      <point x="473" y="-9" type="curve" smooth="yes"/>
      <point x="599" y="-9"/>
      <point x="694" y="45"/>
      <point x="694" y="146" type="curve" smooth="yes"/>
      <point x="694" y="366"/>
      <point x="106" y="260"/>
      <point x="106" y="650" type="curve" smooth="yes"/>
      <point x="106" y="808"/>
      <point x="226" y="938"/>
      <point x="416" y="938" type="curve" smooth="yes"/>
      <point x="612" y="938"/>
      <point x="730" y="792"/>
    </contour>
    <contour>
      <point x="94" y="-20" type="line"/>
      <point x="86" y="-20" type="line"/>
      <point x="86" y="291" type="line"/>
      <point x="95" y="291" type="line"/>
      <point x="101" y="250"/>
      <point x="116" y="217"/>
      <point x="130" y="189" type="curve"/>
      <point x="162" y="137"/>
      <point x="190" y="104"/>
      <point x="219" y="78" type="curve"/>
    </contour>
  </outline>
</glyph>
<glyph name="t" format="2">
  <advance width="738"/>
  <unicode hex="0074"/>
  <outline>
    <contour>
      <point x="23" y="920" type="line"/>
      <point x="662" y="920" type="line"/>
      <point x="662" y="911" type="line"/>
      <point x="23" y="911" type="line"/>
    </contour>
    <contour>
      <point x="722" y="202" type="line"/>
      <point x="674" y="76"/>
      <point x="564" y="-14"/>
      <point x="402" y="-14" type="curve" smooth="yes"/>
      <point x="208" y="-14"/>
      <point x="169" y="92"/>
      <point x="169" y="232" type="curve" smooth="yes"/>
      <point x="169" y="1120" type="line"/>
      <point x="259" y="1120"/>
      <point x="379" y="1140"/>
      <point x="449" y="1180" type="curve"/>
      <point x="449" y="170" type="line" smooth="yes"/>
      <point x="449" y="70"/>
      <point x="470" y="32"/>
      <point x="524" y="32" type="curve" smooth="yes"/>
      <point x="589" y="32"/>
      <point x="670" y="98"/>
      <point x="714" y="204" type="curve"/>
    </contour>
  </outline>
</glyph>
<glyph name="u" format="2">
  <advance width="2458"/>
  <unicode hex="0075"/>
  <outline>
    <contour>
      <point x="841" y="1884" type="line"/>
      <point x="841" y="606" type="line" smooth="yes"/>
      <point x="841" y="262"/>
      <point x="868" y="32"/>
      <point x="1068" y="32" type="curve" smooth="yes"/>
      <point x="1537" y="32"/>
      <point x="1619" y="605"/>
      <point x="1619" y="970" type="curve"/>
      <point x="1636" y="984" type="line"/>
      <point x="1636" y="589"/>
      <point x="1571" y="-41"/>
      <point x="951" y="-41" type="curve" smooth="yes"/>
      <point x="483" y="-41"/>
      <point x="371" y="222"/>
      <point x="371" y="578" type="curve" smooth="yes"/>
      <point x="371" y="1865" type="line"/>
      <point x="112" y="1865" type="line"/>
      <point x="112" y="1884" type="line"/>
    </contour>
    <contour>
      <point x="2091" y="19" type="line"/>
      <point x="2350" y="19" type="line"/>
      <point x="2350" y="0" type="line"/>
      <point x="1619" y="0" type="line"/>
      <point x="1619" y="1865" type="line"/>
      <point x="1343" y="1865" type="line"/>
      <point x="1343" y="1884" type="line"/>
      <point x="2091" y="1884" type="line"/>
    </contour>
  </outline>
</glyph>
<glyph name="v" format="2">
  <advance width="1150"/>
  <unicode hex="0076"/>
  <outline>
    <contour>
      <point x="1134" y="911" type="line"/>
      <point x="766" y="911" type="line"/>
      <point x="766" y="920" type="line"/>
      <point x="1134" y="920" type="line"/>
    </contour>
    <contour>
      <point x="590" y="911" type="line"/>
      <point x="8" y="911" type="line"/>
      <point x="8" y="920" type="line"/>
      <point x="590" y="920" type="line"/>
    </contour>
    <contour>
      <point x="684" y="240" type="line"/>
      <point x="961" y="920" type="line"/>
      <point x="974" y="920" type="line"/>
      <point x="591" y="-20" type="line"/>
      <point x="513" y="-20" type="line"/>
      <point x="127" y="920" type="line"/>
      <point x="436" y="920" type="line"/>
    </contour>
  </outline>
</glyph>
<glyph name="w" format="2">
  <advance width="1652"/>
  <unicode hex="0077"/>
  <outline>
    <contour>
      <point x="598" y="911" type="line"/>
      <point x="8" y="911" type="line"/>
      <point x="8" y="920" type="line"/>
      <point x="598" y="920" type="line"/>
    </contour>
    <contour>
      <point x="1636" y="911" type="line"/>
      <point x="1230" y="911" type="line"/>
      <point x="1230" y="920" type="line"/>
      <point x="1636" y="920" type="line"/>
    </contour>
    <contour>
      <point x="616" y="257" type="line"/>
      <point x="898" y="940" type="line"/>
      <point x="1038" y="940" type="line"/>
      <point x="1232" y="300" type="line"/>
      <point x="1438" y="920" type="line"/>
      <point x="1450" y="920" type="line"/>
      <point x="1136" y="-20" type="line"/>
      <point x="1056" y="-20" type="line"/>
      <point x="798" y="674" type="line"/>
      <point x="514" y="-20" type="line"/>
      <point x="432" y="-20" type="line"/>
      <point x="127" y="920" type="line"/>
      <point x="424" y="920" type="line"/>
    </contour>
  </outline>
</glyph>
<glyph name="x" format="2">
  <advance width="2330"/>
  <unicode hex="0078"/>
  <outline>
    <contour>
      <point x="1284" y="19" type="line"/>
      <point x="2257" y="19" type="line"/>
      <point x="2257" y="0" type="line"/>
      <point x="1284" y="0" type="line"/>
    </contour>
    <contour>
      <point x="74" y="19" type="line"/>
      <point x="795" y="19" type="line"/>
      <point x="795" y="0" type="line"/>
      <point x="74" y="0" type="line"/>
    </contour>
    <contour>
      <point x="1150" y="1865" type="line"/>
      <point x="106" y="1865" type="line"/>
      <point x="106" y="1884" type="line"/>
      <point x="1150" y="1884" type="line"/>
    </contour>
    <contour>
      <point x="2200" y="1865" type="line"/>
      <point x="1512" y="1865" type="line"/>
      <point x="1512" y="1884" type="line"/>
      <point x="2200" y="1884" type="line"/>
    </contour>
    <contour>
      <point x="2100" y="0" type="line"/>
      <point x="1539" y="0" type="line"/>
      <point x="303" y="1884" type="line"/>
      <point x="854" y="1884" type="line"/>
    </contour>
    <contour>
      <point x="367" y="0" type="line"/>
      <point x="341" y="0" type="line"/>
      <point x="1869" y="1884" type="line"/>
      <point x="1894" y="1884" type="line"/>
    </contour>
  </outline>
</glyph>
<glyph name="y" format="2">
  <advance width="2346"/>
  <unicode hex="0079"/>
  <outline>
    <contour>
      <point x="1136" y="1865" type="line"/>
      <point x="24" y="1865" type="line"/>
      <point x="24" y="1884" type="line"/>
      <point x="1136" y="1884" type="line"/>
    </contour>
    <contour>
      <point x="2355" y="1865" type="line"/>
      <point x="1676" y="1865" type="line"/>
      <point x="1676" y="1884" type="line"/>
      <point x="2355" y="1884" type="line"/>
    </contour>
    <contour>
      <point x="1472" y="480" type="line"/>
      <point x="1216" y="-94" type="line"/>
      <point x="232" y="1884" type="line"/>
      <point x="774" y="1884" type="line"/>
    </contour>
    <contour>
      <point x="886" y="-832" type="curve"/>
      <point x="2060" y="1884" type="line"/>
      <point x="2084" y="1884" type="line"/>
      <point x="923" y="-800" type="line" smooth="yes"/>
      <point x="851" y="-962"/>
      <point x="770" y="-1068"/>
      <point x="604" y="-1068" type="curve" smooth="yes"/>
      <point x="471" y="-1068"/>
      <point x="331" y="-981"/>
      <point x="331" y="-805" type="curve" smooth="yes"/>
      <point x="331" y="-649"/>
      <point x="444" y="-528"/>
      <point x="606" y="-528" type="curve" smooth="yes"/>
      <point x="759" y="-528"/>
      <point x="884" y="-651"/>
    </contour>
  </outline>
</glyph>
<glyph name="z" format="2">
  <advance width="965"/>
  <unicode hex="007A"/>
  <outline>
    <contour>
      <point x="416" y="911" type="line" smooth="yes"/>
      <point x="228" y="911"/>
      <point x="129" y="778"/>
      <point x="99" y="576" type="curve"/>
      <point x="90" y="576" type="line"/>
      <point x="90" y="920" type="line"/>
      <point x="891" y="920" type="line"/>
      <point x="891" y="911" type="line"/>
      <point x="349" y="9" type="line"/>
      <point x="550" y="9" type="line" smooth="yes"/>
      <point x="784" y="9"/>
      <point x="884" y="120"/>
      <point x="914" y="368" type="curve"/>
      <point x="923" y="368" type="line"/>
      <point x="923" y="0" type="line"/>
      <point x="34" y="0" type="line"/>
      <point x="34" y="9" type="line"/>
      <point x="574" y="911" type="line"/>
    </contour>
  </outline>
</glyph>
<glyph name="cent" format="2">
  <advance width="2113"/>
  <unicode hex="00A2"/>
  <outline>
    <contour>
      <point x="1189" y="2273.5" type="line"/>
      <point x="1189" y="-348" type="line"/>
      <point x="1170.5" y="-348" type="line"/>
      <point x="1170.5" y="2273.5" type="line"/>
    </contour>
    <component base="c"/>
  </outline>
</glyph>
<glyph name="sterling" format="2">
  <advance width="2686"/>
  <unicode hex="00A3"/>
  <outline>
    <contour>
      <point x="2589" y="889" type="line"/>
      <point x="2589" y="90"/>
      <point x="2297.5" y="-123"/>
      <point x="1830.5" y="-123" type="curve" smooth="yes"/>
      <point x="1269.5" y="-123"/>
      <point x="1024" y="123"/>
      <point x="766" y="123" type="curve" smooth="yes"/>
      <point x="598" y="123"/>
      <point x="359" y="41"/>
      <point x="318" y="-82" type="curve"/>
      <point x="304" y="-82" type="line"/>
      <point x="365.5" y="221"/>
      <point x="712.5" y="643"/>
      <point x="1114" y="643" type="curve" smooth="yes"/>
      <point x="1483" y="643"/>
      <point x="1664" y="504"/>
      <point x="1934" y="504" type="curve" smooth="yes"/>
      <point x="2227" y="504"/>
      <point x="2570" y="553"/>
      <point x="2570" y="889" type="curve"/>
    </contour>
    <contour>
      <point x="1905" y="1643.5" type="line"/>
      <point x="1905" y="1623.5" type="line"/>
      <point x="61" y="1623.5" type="line"/>
      <point x="61" y="1643.5" type="line"/>
    </contour>
    <contour>
      <point x="401" y="2253" type="curve" smooth="yes"/>
      <point x="401" y="2826"/>
      <point x="852.5" y="3113"/>
      <point x="1573" y="3113" type="curve" smooth="yes"/>
      <point x="2237" y="3113"/>
      <point x="2589" y="2726"/>
      <point x="2589" y="2390" type="curve" smooth="yes"/>
      <point x="2589" y="2160.5"/>
      <point x="2437" y="2003"/>
      <point x="2242.5" y="2003" type="curve" smooth="yes"/>
      <point x="2058.5" y="2003"/>
      <point x="1868" y="2130"/>
      <point x="1868" y="2355.5" type="curve" smooth="yes"/>
      <point x="1868" y="2560"/>
      <point x="2043.5" y="2703.5"/>
      <point x="2224" y="2703.5" type="curve" smooth="yes"/>
      <point x="2399" y="2703.5"/>
      <point x="2489" y="2591"/>
      <point x="2526.5" y="2532" type="curve"/>
      <point x="2458" y="2802"/>
      <point x="2160.5" y="3074.5"/>
      <point x="1660.5" y="3074.5" type="curve" smooth="yes"/>
      <point x="1234.5" y="3074.5"/>
      <point x="1102" y="2740.5"/>
      <point x="1102" y="2396.5" type="curve" smooth="yes"/>
      <point x="1102" y="1990.5"/>
      <point x="1331" y="1802"/>
      <point x="1331" y="1454" type="curve" smooth="yes"/>
      <point x="1331" y="696.5"/>
      <point x="262" y="696.5"/>
      <point x="315" y="-82" type="curve"/>
      <point x="295" y="-82" type="line"/>
      <point x="217" y="487"/>
      <point x="733" y="807"/>
      <point x="733" y="1069" type="curve" smooth="yes"/>
      <point x="733" y="1536"/>
      <point x="401" y="1782"/>
    </contour>
  </outline>
</glyph>
<glyph name="section" format="2">
  <advance width="1951"/>
  <unicode hex="00A7"/>
  <outline>
    <contour>
      <point x="557.5" y="2677" type="curve" smooth="yes"/>
      <point x="557.5" y="2222.5"/>
      <point x="1792" y="2214"/>
      <point x="1792" y="1587" type="curve" smooth="yes"/>
      <point x="1792" y="1292"/>
      <point x="1541.5" y="1193.5"/>
      <point x="1341" y="1067" type="curve"/>
      <point x="1335" y="1079" type="line"/>
      <point x="1455" y="1157.5"/>
      <point x="1518" y="1198"/>
      <point x="1518" y="1331.5" type="curve" smooth="yes"/>
      <point x="1518" y="1786.5"/>
      <point x="274.5" y="1704"/>
      <point x="274.5" y="2449" type="curve" smooth="yes"/>
      <point x="274.5" y="2875"/>
      <point x="633" y="3113"/>
      <point x="1022" y="3113" type="curve" smooth="yes"/>
      <point x="1361.5" y="3113"/>
      <point x="1775.5" y="2975.5"/>
      <point x="1775.5" y="2541.5" type="curve" smooth="yes"/>
      <point x="1775.5" y="2353"/>
      <point x="1652.5" y="2206"/>
      <point x="1468.5" y="2206" type="curve" smooth="yes"/>
      <point x="1304.5" y="2206"/>
      <point x="1186" y="2329"/>
      <point x="1186" y="2496.5" type="curve" smooth="yes"/>
      <point x="1186" y="2648"/>
      <point x="1320.5" y="2777"/>
      <point x="1480.5" y="2777" type="curve" smooth="yes"/>
      <point x="1598.5" y="2777"/>
      <point x="1696" y="2710"/>
      <point x="1734.5" y="2641" type="curve"/>
      <point x="1678.5" y="2968.5"/>
      <point x="1340" y="3093"/>
      <point x="1022" y="3093" type="curve" smooth="yes"/>
      <point x="773.5" y="3093"/>
      <point x="557.5" y="2903"/>
    </contour>
    <contour>
      <point x="1788" y="664" type="curve" smooth="yes"/>
      <point x="1788" y="238"/>
      <point x="1450" y="-41"/>
      <point x="938" y="-41" type="curve" smooth="yes"/>
      <point x="578" y="-41"/>
      <point x="123" y="103"/>
      <point x="123" y="537" type="curve" smooth="yes"/>
      <point x="123" y="725.5"/>
      <point x="246.5" y="872"/>
      <point x="430.5" y="872" type="curve" smooth="yes"/>
      <point x="594.5" y="872"/>
      <point x="713" y="749"/>
      <point x="713" y="581.5" type="curve" smooth="yes"/>
      <point x="713" y="430"/>
      <point x="580.5" y="309.5"/>
      <point x="420.5" y="309.5" type="curve" smooth="yes"/>
      <point x="285.5" y="309.5"/>
      <point x="189" y="394.5"/>
      <point x="161.5" y="463.5" type="curve"/>
      <point x="203.5" y="115.5"/>
      <point x="586.5" y="-21"/>
      <point x="938" y="-21" type="curve" smooth="yes"/>
      <point x="1319" y="-21"/>
      <point x="1479" y="237.5"/>
      <point x="1479" y="414" type="curve" smooth="yes"/>
      <point x="1479" y="868.5"/>
      <point x="197" y="827"/>
      <point x="197" y="1433.5" type="curve" smooth="yes"/>
      <point x="197" y="1749"/>
      <point x="438.5" y="1921.5"/>
      <point x="598" y="2027.5" type="curve"/>
      <point x="625" y="2027.5" type="line"/>
      <point x="544" y="1978.5"/>
      <point x="479.5" y="1910"/>
      <point x="479.5" y="1776" type="curve" smooth="yes"/>
      <point x="479.5" y="1321"/>
      <point x="1788" y="1409"/>
    </contour>
  </outline>
</glyph>
<glyph name="guillemotleft" format="2">
  <advance width="2969"/>
  <unicode hex="00AB"/>
  <outline>
    <contour>
      <point x="2010.5" y="1589.5" type="line"/>
      <point x="2734" y="604" type="line"/>
      <point x="2723.5" y="594" type="line"/>
      <point x="1249.5" y="1554.5" type="line"/>
      <point x="1249.5" y="1619.5" type="line"/>
      <point x="2723.5" y="2580" type="line"/>
      <point x="2734" y="2570.5" type="line"/>
    </contour>
    <contour>
      <point x="823" y="1589.5" type="line"/>
      <point x="1587" y="604" type="line"/>
      <point x="1577" y="594" type="line"/>
      <point x="102" y="1554.5" type="line"/>
      <point x="102" y="1619.5" type="line"/>
      <point x="1577" y="2580" type="line"/>
      <point x="1587" y="2570.5" type="line"/>
    </contour>
  </outline>
</glyph>
<glyph name="acute" format="2">
  <advance width="1678"/>
  <unicode hex="00B4"/>
  <outline>
    <contour>
      <point x="1187.5" y="2869.5" type="curve" smooth="yes"/>
      <point x="245" y="2961" type="line"/>
      <point x="238.5" y="2979" type="line"/>
      <point x="1147" y="3310" type="line" smooth="yes"/>
      <point x="1305" y="3372"/>
      <point x="1454.5" y="3231"/>
      <point x="1454.5" y="3092" type="curve" smooth="yes"/>
      <point x="1454.5" y="2953"/>
      <point x="1326" y="2847.5"/>
    </contour>
  </outline>
</glyph>
<glyph name="mu" format="2">
  <advance width="2458"/>
  <unicode hex="00B5"/>
  <outline>
    <contour>
      <point x="1035.5" y="-504" type="curve" smooth="yes"/>
      <point x="1171" y="-504"/>
      <point x="1277.5" y="-622"/>
      <point x="1277.5" y="-778" type="curve" smooth="yes"/>
      <point x="1277.5" y="-938"/>
      <point x="1192" y="-1064.5"/>
      <point x="892.5" y="-1064.5" type="curve" smooth="yes"/>
      <point x="606" y="-1064.5"/>
      <point x="359.5" y="-864.5"/>
      <point x="359.5" y="-496" type="curve" smooth="yes"/>
      <point x="359.5" y="1314.5" type="line"/>
      <point x="378" y="1314.5" type="line"/>
      <point x="378" y="-496" type="line" smooth="yes"/>
      <point x="378" y="-851.5"/>
      <point x="622.5" y="-1083"/>
      <point x="976" y="-1039" type="curve"/>
      <point x="976" y="-1041.5" type="line"/>
      <point x="877" y="-1005.5"/>
      <point x="789.5" y="-909"/>
      <point x="789.5" y="-759" type="curve" smooth="yes"/>
      <point x="789.5" y="-623.5"/>
      <point x="900" y="-504"/>
    </contour>
    <component base="u"/>
  </outline>
</glyph>
<glyph name="cedilla" format="2">
  <advance width="1099"/>
  <unicode hex="00B8"/>
  <outline>
    <contour>
      <point x="618" y="-280" type="curve" smooth="yes"/>
      <point x="618" y="-175"/>
      <point x="533" y="-158"/>
      <point x="433" y="-158" type="curve"/>
      <point x="614" y="82" type="line"/>
      <point x="626" y="82" type="line"/>
      <point x="506" y="-78" type="line"/>
      <point x="698" y="-84"/>
      <point x="840" y="-128"/>
      <point x="840" y="-240" type="curve" smooth="yes"/>
      <point x="840" y="-340"/>
      <point x="744" y="-424"/>
      <point x="442" y="-424" type="curve"/>
      <point x="442" y="-414" type="line"/>
      <point x="560" y="-414"/>
      <point x="618" y="-357"/>
    </contour>
  </outline>
</glyph>
<glyph name="onequarter" format="2">
  <advance width="2747"/>
  <unicode hex="00BC"/>
  <outline>
    <contour>
      <point x="2144" y="2662" type="line"/>
      <point x="2163.5" y="2662" type="line"/>
      <point x="184" y="-410" type="line"/>
      <point x="165" y="-410" type="line"/>
    </contour>
    <component base="four" xScale="0.6" yScale="0.6" xOffset="1106" yOffset="-422"/>
    <component base="one" xScale="0.6" yScale="0.6" xOffset="-32.5" yOffset="1458"/>
  </outline>
</glyph>
<glyph name="threequarters" format="2">
  <advance width="2993"/>
  <unicode hex="00BE"/>
  <outline>
    <contour>
      <point x="2388.5" y="2662" type="line"/>
      <point x="2407" y="2662" type="line"/>
      <point x="427.5" y="-410" type="line"/>
      <point x="409" y="-410" type="line"/>
    </contour>
    <component base="three" xScale="0.6" yScale="0.6" xOffset="20" yOffset="1450"/>
    <component base="four" xScale="0.6" yScale="0.6" xOffset="1352" yOffset="-422"/>
  </outline>
</glyph>
<glyph name="AE" format="2">
  <advance width="2091"/>
  <unicode hex="00C6"/>
  <outline>
    <contour>
      <point x="1048" y="1500" type="line"/>
      <point x="1060" y="1500" type="line"/>
      <point x="222" y="0" type="line"/>
      <point x="210" y="0" type="line"/>
    </contour>
    <contour>
      <point x="30" y="9" type="line"/>
      <point x="470" y="9" type="line"/>
      <point x="470" y="0" type="line"/>
      <point x="30" y="0" type="line"/>
    </contour>
    <contour>
      <point x="492" y="495" type="line"/>
      <point x="1070" y="495" type="line"/>
      <point x="1070" y="485" type="line"/>
      <point x="491" y="485" type="line"/>
    </contour>
    <contour>
      <point x="1050" y="1500" type="line"/>
      <point x="1360" y="1500" type="line"/>
      <point x="1360" y="0" type="line"/>
      <point x="1050" y="0" type="line"/>
    </contour>
    <contour>
      <point x="1050" y="1500" type="line"/>
      <point x="2012" y="1500" type="line"/>
      <point x="2012" y="1090" type="line"/>
      <point x="2003" y="1090" type="line"/>
      <point x="1973" y="1304"/>
      <point x="1824" y="1491"/>
      <point x="1600" y="1491" type="curve" smooth="yes"/>
      <point x="1050" y="1491" type="line"/>
    </contour>
    <contour>
      <point x="2032" y="0" type="line"/>
      <point x="870" y="0" type="line"/>
      <point x="870" y="9" type="line"/>
      <point x="1580" y="9" type="line" smooth="yes"/>
      <point x="1844" y="9"/>
      <point x="1993" y="196"/>
      <point x="2023" y="450" type="curve"/>
      <point x="2032" y="450" type="line"/>
    </contour>
    <contour>
      <point x="1693" y="526" type="line"/>
      <point x="1663" y="660"/>
      <point x="1544" y="771"/>
      <point x="1430" y="771" type="curve" smooth="yes"/>
      <point x="1310" y="771" type="line"/>
      <point x="1310" y="781" type="line"/>
      <point x="1430" y="781" type="line" smooth="yes"/>
      <point x="1544" y="781"/>
      <point x="1663" y="882"/>
      <point x="1693" y="1016" type="curve"/>
      <point x="1702" y="1016" type="line"/>
      <point x="1702" y="526" type="line"/>
    </contour>
  </outline>
</glyph>
<glyph name="germandbls" format="2">
  <advance width="1541"/>
  <unicode hex="00DF"/>
  <outline>
    <contour>
      <point x="806" y="807" type="curve"/>
      <point x="806" y="814" type="line"/>
      <point x="1024" y="814"/>
      <point x="1080" y="1014"/>
      <point x="1080" y="1142" type="curve" smooth="yes"/>
      <point x="1080" y="1286"/>
      <point x="1024" y="1510"/>
      <point x="826" y="1510" type="curve" smooth="yes"/>
      <point x="578" y="1510"/>
      <point x="510" y="1246"/>
      <point x="510" y="962" type="curve" smooth="yes"/>
      <point x="510" y="0" type="line"/>
      <point x="210" y="0" type="line"/>
      <point x="210" y="982" type="line" smooth="yes"/>
      <point x="210" y="1348"/>
      <point x="510" y="1520"/>
      <point x="836" y="1520" type="curve" smooth="yes"/>
      <point x="1122" y="1520"/>
      <point x="1402" y="1378"/>
      <point x="1402" y="1162" type="curve" smooth="yes"/>
      <point x="1402" y="942"/>
      <point x="1208" y="807"/>
    </contour>
    <contour>
      <point x="30" y="9" type="line"/>
      <point x="688" y="9" type="line"/>
      <point x="688" y="0" type="line"/>
      <point x="30" y="0" type="line"/>
    </contour>
    <contour>
      <point x="1462" y="350" type="curve" smooth="yes"/>
      <point x="1462" y="110"/>
      <point x="1234" y="-20"/>
      <point x="992" y="-20" type="curve" smooth="yes"/>
      <point x="810" y="-20"/>
      <point x="676" y="108"/>
      <point x="676" y="312" type="curve" smooth="yes"/>
      <point x="676" y="424"/>
      <point x="760" y="482"/>
      <point x="850" y="482" type="curve" smooth="yes"/>
      <point x="930" y="482"/>
      <point x="1008" y="432"/>
      <point x="1008" y="330" type="curve" smooth="yes"/>
      <point x="1008" y="236"/>
      <point x="922" y="180"/>
      <point x="844" y="180" type="curve" smooth="yes"/>
      <point x="766" y="180"/>
      <point x="702" y="231"/>
      <point x="688" y="296" type="curve"/>
      <point x="694" y="109"/>
      <point x="822" y="-6"/>
      <point x="962" y="-6" type="curve" smooth="yes"/>
      <point x="1110" y="-6"/>
      <point x="1140" y="192"/>
      <point x="1140" y="320" type="curve" smooth="yes"/>
      <point x="1140" y="508"/>
      <point x="1104" y="806"/>
      <point x="806" y="806" type="curve"/>
      <point x="806" y="812" type="line"/>
      <point x="1288" y="812"/>
      <point x="1462" y="610"/>
    </contour>
  </outline>
</glyph>
<glyph name="ae" format="2">
  <advance width="1665"/>
  <unicode hex="00E6"/>
  <outline>
    <contour>
      <point x="140" y="722" type="curve" smooth="yes"/>
      <point x="140" y="851"/>
      <point x="314" y="936"/>
      <point x="516" y="936" type="curve" smooth="yes"/>
      <point x="776" y="936"/>
      <point x="882" y="792"/>
      <point x="882" y="610" type="curve"/>
      <point x="872" y="362" type="line"/>
      <point x="872" y="114"/>
      <point x="672" y="-20"/>
      <point x="440" y="-20" type="curve" smooth="yes"/>
      <point x="222" y="-20"/>
      <point x="70" y="58"/>
      <point x="70" y="226" type="curve" smooth="yes"/>
      <point x="70" y="394"/>
      <point x="224" y="514"/>
      <point x="508" y="514" type="curve" smooth="yes"/>
      <point x="816" y="514" type="line"/>
      <point x="816" y="504" type="line"/>
      <point x="578" y="504" type="line" smooth="yes"/>
      <point x="456" y="504"/>
      <point x="374" y="385"/>
      <point x="374" y="241" type="curve" smooth="yes"/>
      <point x="374" y="107"/>
      <point x="418" y="-6"/>
      <point x="498" y="-6" type="curve" smooth="yes"/>
      <point x="582" y="-6"/>
      <point x="652" y="130"/>
      <point x="652" y="312" type="curve" smooth="yes"/>
      <point x="652" y="610" type="line" smooth="yes"/>
      <point x="652" y="744"/>
      <point x="623" y="921"/>
      <point x="463" y="921" type="curve" smooth="yes"/>
      <point x="364" y="921"/>
      <point x="258" y="881"/>
      <point x="212" y="834" type="curve"/>
      <point x="345" y="894"/>
      <point x="462" y="820"/>
      <point x="462" y="726" type="curve" smooth="yes"/>
      <point x="462" y="636"/>
      <point x="374" y="582"/>
      <point x="294" y="582" type="curve" smooth="yes"/>
      <point x="204" y="582"/>
      <point x="140" y="640"/>
    </contour>
    <contour>
      <point x="1317" y="518" type="line"/>
      <point x="1315" y="700"/>
      <point x="1303" y="930"/>
      <point x="1175" y="930" type="curve" smooth="yes"/>
      <point x="1037" y="930"/>
      <point x="1000" y="708"/>
      <point x="1000" y="480" type="curve" smooth="yes"/>
      <point x="1000" y="252"/>
      <point x="1039" y="-2"/>
      <point x="1229" y="-2" type="curve" smooth="yes"/>
      <point x="1421" y="-2"/>
      <point x="1556" y="120"/>
      <point x="1606" y="286" type="curve"/>
      <point x="1616" y="286" type="line"/>
      <point x="1564" y="112"/>
      <point x="1423" y="-20"/>
      <point x="1181" y="-20" type="curve" smooth="yes"/>
      <point x="929" y="-20"/>
      <point x="750" y="150"/>
      <point x="750" y="460" type="curve" smooth="yes"/>
      <point x="750" y="770"/>
      <point x="923" y="940"/>
      <point x="1175" y="940" type="curve" smooth="yes"/>
      <point x="1473" y="940"/>
      <point x="1614" y="727"/>
      <point x="1614" y="509" type="curve"/>
      <point x="891" y="509" type="line"/>
      <point x="891" y="518" type="line"/>
    </contour>
  </outline>
</glyph>
<glyph name="eth" format="2">
  <advance width="1219"/>
  <unicode hex="00F0"/>
  <outline>
    <contour>
      <point x="260" y="1260" type="line"/>
      <point x="1150" y="1260" type="line"/>
      <point x="1150" y="1250" type="line"/>
      <point x="260" y="1250" type="line"/>
    </contour>
    <contour>
      <point x="1120" y="620" type="curve" smooth="yes"/>
      <point x="1120" y="200"/>
      <point x="904" y="-20"/>
      <point x="582" y="-20" type="curve" smooth="yes"/>
      <point x="260" y="-20"/>
      <point x="60" y="200"/>
      <point x="60" y="500" type="curve" smooth="yes"/>
      <point x="60" y="840"/>
      <point x="306" y="985"/>
      <point x="528" y="985" type="curve" smooth="yes"/>
      <point x="742" y="985"/>
      <point x="798" y="804"/>
      <point x="798" y="560" type="curve"/>
      <point x="790" y="560" type="line"/>
      <point x="790" y="822"/>
      <point x="717" y="958"/>
      <point x="583" y="958" type="curve" smooth="yes"/>
      <point x="455" y="958"/>
      <point x="390" y="818"/>
      <point x="390" y="500" type="curve" smooth="yes"/>
      <point x="390" y="222"/>
      <point x="418" y="-10"/>
      <point x="576" y="-10" type="curve" smooth="yes"/>
      <point x="734" y="-10"/>
      <point x="790" y="242"/>
      <point x="790" y="560" type="curve"/>
      <point x="791" y="657" type="line"/>
      <point x="791" y="1029"/>
      <point x="568" y="1511"/>
      <point x="210" y="1511" type="curve"/>
      <point x="210" y="1520" type="line"/>
      <point x="725" y="1520"/>
      <point x="1120" y="1124"/>
    </contour>
  </outline>
</glyph>
<glyph name="thorn" format="2">
  <advance width="1248"/>
  <unicode hex="00FE"/>
  <outline>
    <contour>
      <point x="444" y="460" type="curve" smooth="yes"/>
      <point x="444" y="762"/>
      <point x="558" y="938"/>
      <point x="764" y="938" type="curve" smooth="yes"/>
      <point x="982" y="938"/>
      <point x="1188" y="760"/>
      <point x="1188" y="460" type="curve" smooth="yes"/>
      <point x="1188" y="160"/>
      <point x="982" y="-20"/>
      <point x="764" y="-20" type="curve" smooth="yes"/>
      <point x="558" y="-20"/>
      <point x="444" y="158"/>
    </contour>
    <contour>
      <point x="452" y="460" type="curve" smooth="yes"/>
      <point x="452" y="158"/>
      <point x="578" y="9"/>
      <point x="704" y="9" type="curve" smooth="yes"/>
      <point x="821" y="9"/>
      <point x="868" y="172"/>
      <point x="868" y="460" type="curve" smooth="yes"/>
      <point x="868" y="748"/>
      <point x="821" y="909"/>
      <point x="704" y="909" type="curve" smooth="yes"/>
      <point x="578" y="909"/>
      <point x="452" y="762"/>
    </contour>
    <contour>
      <point x="32" y="-491" type="line"/>
      <point x="592" y="-491" type="line"/>
      <point x="592" y="-500" type="line"/>
      <point x="32" y="-500" type="line"/>
    </contour>
    <contour>
      <point x="172" y="1491" type="line"/>
      <point x="32" y="1491" type="line"/>
      <point x="32" y="1500" type="line"/>
      <point x="452" y="1500" type="line"/>
      <point x="452" y="-500" type="line"/>
      <point x="172" y="-500" type="line"/>
    </contour>
  </outline>
</glyph>
<glyph name="dotlessi" format="2">
  <advance width="1316"/>
  <unicode hex="0131"/>
  <outline>
    <contour>
      <point x="86" y="19" type="line"/>
      <point x="1233" y="19" type="line"/>
      <point x="1233" y="0" type="line"/>
      <point x="86" y="0" type="line"/>
    </contour>
    <contour>
      <point x="372" y="1865" type="line"/>
      <point x="86" y="1865" type="line"/>
      <point x="86" y="1884" type="line"/>
      <point x="946" y="1884" type="line"/>
      <point x="946" y="0" type="line"/>
      <point x="372" y="0" type="line"/>
    </contour>
  </outline>
</glyph>
<glyph name="kgreenlandic" format="2">
  <advance width="1283"/>
  <unicode hex="0138"/>
  <outline>
    <contour>
      <point x="1187" y="0" type="line"/>
      <point x="842" y="0" type="line"/>
      <point x="445" y="532" type="line"/>
      <point x="989" y="920" type="line"/>
      <point x="1002" y="920" type="line"/>
      <point x="663" y="672" type="line"/>
    </contour>
    <contour>
      <point x="699" y="9" type="line"/>
      <point x="1263" y="9" type="line"/>
      <point x="1263" y="0" type="line"/>
      <point x="699" y="0" type="line"/>
    </contour>
    <contour>
      <point x="1165" y="911" type="line"/>
      <point x="719" y="911" type="line"/>
      <point x="719" y="920" type="line"/>
      <point x="1165" y="920" type="line"/>
    </contour>
    <contour>
      <point x="41" y="9" type="line"/>
      <point x="611" y="9" type="line"/>
      <point x="611" y="0" type="line"/>
      <point x="41" y="0" type="line"/>
    </contour>
    <contour>
      <point x="221" y="911" type="line"/>
      <point x="41" y="911" type="line"/>
      <point x="41" y="920" type="line"/>
      <point x="501" y="920" type="line"/>
      <point x="501" y="0" type="line"/>
      <point x="221" y="0" type="line"/>
    </contour>
  </outline>
</glyph>
<glyph name="Lslash" format="2">
  <advance width="1232"/>
  <unicode hex="0141"/>
  <outline>
    <contour>
      <point x="32" y="720" type="line"/>
      <point x="822" y="1160" type="line"/>
      <point x="822" y="1149" type="line"/>
      <point x="32" y="709" type="line"/>
    </contour>
    <component base="L"/>
  </outline>
</glyph>
<glyph name="lslash" format="2">
  <advance width="706"/>
  <unicode hex="0142"/>
  <outline>
    <contour>
      <point x="34" y="760" type="line"/>
      <point x="704" y="1160" type="line"/>
      <point x="704" y="1150" type="line"/>
      <point x="34" y="750" type="line"/>
    </contour>
    <component base="l"/>
  </outline>
</glyph>
<glyph name="OE" format="2">
  <advance width="1987"/>
  <unicode hex="0152"/>
  <outline>
    <contour>
      <point x="805" y="1491" type="move"/>
    </contour>
    <contour>
      <point x="430" y="750" type="curve" smooth="yes"/>
      <point x="430" y="356"/>
      <point x="527" y="9"/>
      <point x="805" y="9" type="curve"/>
      <point x="764" y="0" type="line"/>
      <point x="358" y="0"/>
      <point x="80" y="304"/>
      <point x="80" y="750" type="curve" smooth="yes"/>
      <point x="80" y="1196"/>
      <point x="358" y="1500"/>
      <point x="764" y="1500" type="curve"/>
      <point x="805" y="1491" type="line"/>
      <point x="527" y="1491"/>
      <point x="430" y="1144"/>
    </contour>
    <component base="E" xOffset="728"/>
  </outline>
</glyph>
<glyph name="uni0237" format="2">
  <advance width="1338"/>
  <unicode hex="0237"/>
  <outline>
    <contour>
      <point x="1024" y="1884" type="line"/>
      <point x="1024" y="-49" type="line" smooth="yes"/>
      <point x="1024" y="-586"/>
      <point x="708" y="-1065"/>
      <point x="135" y="-1065" type="curve" smooth="yes"/>
      <point x="-238" y="-1065"/>
      <point x="-492" y="-847"/>
      <point x="-492" y="-577" type="curve" smooth="yes"/>
      <point x="-492" y="-370"/>
      <point x="-334" y="-242"/>
      <point x="-156" y="-242" type="curve" smooth="yes"/>
      <point x="7.5" y="-242"/>
      <point x="176" y="-340"/>
      <point x="176" y="-545" type="curve" smooth="yes"/>
      <point x="176" y="-737.5"/>
      <point x="38" y="-856"/>
      <point x="-173.5" y="-856" type="curve" smooth="yes"/>
      <point x="-327.5" y="-856"/>
      <point x="-420" y="-762.5"/>
      <point x="-447.5" y="-666" type="curve"/>
      <point x="-430.5" y="-849.5"/>
      <point x="-212.5" y="-1038"/>
      <point x="84" y="-1038" type="curve" smooth="yes"/>
      <point x="514.5" y="-1038"/>
      <point x="442.5" y="-433"/>
      <point x="442.5" y="87" type="curve" smooth="yes"/>
      <point x="451" y="1865" type="line"/>
      <point x="83.5" y="1865" type="line"/>
      <point x="83.5" y="1884" type="line"/>
    </contour>
  </outline>
</glyph>
<glyph name="circumflex" format="2">
  <advance width="1740"/>
  <unicode hex="02C6"/>
  <outline>
    <contour>
      <point x="868" y="2867" type="line"/>
      <point x="214" y="2590" type="line"/>
      <point x="204.5" y="2600.5" type="line"/>
      <point x="696.5" y="3154" type="line"/>
      <point x="1045" y="3154" type="line"/>
      <point x="1536" y="2600.5" type="line"/>
      <point x="1526" y="2590" type="line"/>
    </contour>
  </outline>
</glyph>
<glyph name="caron" format="2">
  <advance width="1740"/>
  <unicode hex="02C7"/>
  <outline>
    <contour>
      <point x="870" y="2928.5" type="line"/>
      <point x="1525" y="3204" type="line"/>
      <point x="1536" y="3194.5" type="line"/>
      <point x="1045" y="2642" type="line"/>
      <point x="696.5" y="2642" type="line"/>
      <point x="204.5" y="3194.5" type="line"/>
      <point x="215.5" y="3204" type="line"/>
    </contour>
  </outline>
</glyph>
<glyph name="ring" format="2">
  <advance width="639"/>
  <unicode hex="02DA"/>
  <outline>
    <contour>
      <point x="120" y="1360" type="curve" smooth="yes"/>
      <point x="120" y="1462"/>
      <point x="198" y="1540"/>
      <point x="320" y="1540" type="curve" smooth="yes"/>
      <point x="442" y="1540"/>
      <point x="520" y="1462"/>
      <point x="520" y="1360" type="curve" smooth="yes"/>
      <point x="520" y="1258"/>
      <point x="442" y="1180"/>
      <point x="320" y="1180" type="curve" smooth="yes"/>
      <point x="198" y="1180"/>
      <point x="120" y="1258"/>
    </contour>
    <contour>
      <point x="240" y="1360" type="curve" smooth="yes"/>
      <point x="240" y="1258"/>
      <point x="258" y="1189"/>
      <point x="320" y="1189" type="curve" smooth="yes"/>
      <point x="382" y="1189"/>
      <point x="400" y="1258"/>
      <point x="400" y="1360" type="curve" smooth="yes"/>
      <point x="400" y="1462"/>
      <point x="382" y="1531"/>
      <point x="320" y="1531" type="curve" smooth="yes"/>
      <point x="258" y="1531"/>
      <point x="240" y="1462"/>
    </contour>
  </outline>
</glyph>
<glyph name="ogonek" format="2">
  <advance width="1099"/>
  <unicode hex="02DB"/>
  <outline>
    <contour>
      <point x="801" y="-246" type="line"/>
      <point x="771" y="-302"/>
      <point x="723" y="-392"/>
      <point x="551" y="-392" type="curve" smooth="yes"/>
      <point x="419" y="-392"/>
      <point x="305" y="-340"/>
      <point x="305" y="-220" type="curve" smooth="yes"/>
      <point x="305" y="-60"/>
      <point x="501" y="42"/>
      <point x="653" y="87" type="curve"/>
      <point x="658" y="80" type="line"/>
      <point x="616" y="56"/>
      <point x="571" y="-34"/>
      <point x="571" y="-168" type="curve" smooth="yes"/>
      <point x="571" y="-280"/>
      <point x="617" y="-344"/>
      <point x="675" y="-344" type="curve" smooth="yes"/>
      <point x="732" y="-344"/>
      <point x="763" y="-300"/>
      <point x="796" y="-242" type="curve"/>
    </contour>
  </outline>
</glyph>
<glyph name="tilde" format="2">
  <advance width="1834"/>
  <unicode hex="02DC"/>
  <outline>
    <contour>
      <point x="488" y="2679" type="curve" smooth="yes"/>
      <point x="335.5" y="2679"/>
      <point x="223" y="2588.5"/>
      <point x="223" y="2437" type="curve"/>
      <point x="204.5" y="2437" type="line"/>
      <point x="204.5" y="2785"/>
      <point x="349.5" y="3039"/>
      <point x="612" y="3039" type="curve" smooth="yes"/>
      <point x="942" y="3039"/>
      <point x="1079.5" y="2716"/>
      <point x="1347" y="2716" type="curve" smooth="yes"/>
      <point x="1518.5" y="2716"/>
      <point x="1611" y="2806"/>
      <point x="1611" y="2957.5" type="curve"/>
      <point x="1630" y="2957.5" type="line"/>
      <point x="1630" y="2568"/>
      <point x="1567" y="2355.5"/>
      <point x="1264" y="2355.5" type="curve" smooth="yes"/>
      <point x="946" y="2355.5"/>
      <point x="783.5" y="2679"/>
    </contour>
  </outline>
</glyph>
<glyph name="pi" format="2">
  <advance width="2583"/>
  <unicode hex="03C0"/>
  <outline>
    <contour>
      <point x="2441" y="422" type="line"/>
      <point x="2347" y="135.5"/>
      <point x="2193.5" y="-40.5"/>
      <point x="1896" y="-40.5" type="curve" smooth="yes"/>
      <point x="1621.5" y="-40.5"/>
      <point x="1417.5" y="77.5"/>
      <point x="1417.5" y="339.5" type="curve" smooth="yes"/>
      <point x="1417.5" y="1720" type="line"/>
      <point x="1991" y="1720" type="line"/>
      <point x="1991" y="320.5" type="line" smooth="yes"/>
      <point x="1991" y="238.5"/>
      <point x="2032.5" y="159.5"/>
      <point x="2150" y="159.5" type="curve" smooth="yes"/>
      <point x="2255.5" y="159.5"/>
      <point x="2346" y="230.5"/>
      <point x="2427.5" y="432" type="curve"/>
    </contour>
    <contour>
      <point x="508" y="-40.5" type="curve" smooth="yes"/>
      <point x="299" y="-40.5"/>
      <point x="164" y="74"/>
      <point x="164" y="238" type="curve" smooth="yes"/>
      <point x="164" y="619.5"/>
      <point x="806.5" y="438"/>
      <point x="806.5" y="1142.5" type="curve" smooth="yes"/>
      <point x="806.5" y="1843.5" type="line"/>
      <point x="1036" y="1843.5" type="line"/>
      <point x="1036" y="995.5" type="line" smooth="yes"/>
      <point x="1036" y="348"/>
      <point x="848.5" y="-40.5"/>
    </contour>
    <contour>
      <point x="2359" y="1884" type="line"/>
      <point x="2359" y="1311" type="line"/>
      <point x="187" y="1311" type="line"/>
      <point x="187" y="1003" type="line"/>
      <point x="168" y="1003" type="line"/>
      <point x="168" y="1884" type="line"/>
    </contour>
  </outline>
</glyph>
<glyph name="uni1E9E" format="2">
  <advance width="1781"/>
  <unicode hex="1E9E"/>
  <outline>
    <contour>
      <point x="30" y="9" type="line"/>
      <point x="710" y="9" type="line"/>
      <point x="710" y="0" type="line"/>
      <point x="30" y="0" type="line"/>
    </contour>
    <contour>
      <point x="1226" y="795" type="line"/>
      <point x="1125" y="812"/>
      <point x="1022" y="825"/>
      <point x="916" y="830" type="curve"/>
      <point x="1406" y="1440" type="line"/>
      <point x="1344" y="1468"/>
      <point x="1216" y="1510"/>
      <point x="1056" y="1510" type="curve" smooth="yes"/>
      <point x="668" y="1510"/>
      <point x="530" y="1236"/>
      <point x="530" y="862" type="curve" smooth="yes"/>
      <point x="530" y="0" type="line"/>
      <point x="210" y="0" type="line"/>
      <point x="210" y="882" type="line" smooth="yes"/>
      <point x="210" y="1308"/>
      <point x="580" y="1520"/>
      <point x="1056" y="1520" type="curve" smooth="yes"/>
      <point x="1362" y="1520"/>
      <point x="1572" y="1388"/>
      <point x="1642" y="1312" type="curve"/>
    </contour>
    <contour>
      <point x="705" y="282" type="curve"/>
      <point x="725" y="132"/>
      <point x="877" y="-1"/>
      <point x="1092" y="-1" type="curve" smooth="yes"/>
      <point x="1305" y="-1"/>
      <point x="1375" y="182"/>
      <point x="1375" y="400" type="curve" smooth="yes"/>
      <point x="1375" y="578"/>
      <point x="1304" y="821"/>
      <point x="916" y="821" type="curve"/>
      <point x="916" y="830" type="line"/>
      <point x="1528" y="830"/>
      <point x="1702" y="645"/>
      <point x="1702" y="405" type="curve" smooth="yes"/>
      <point x="1702" y="135"/>
      <point x="1454" y="-20"/>
      <point x="1152" y="-20" type="curve" smooth="yes"/>
      <point x="838" y="-20"/>
      <point x="690" y="158"/>
      <point x="690" y="322" type="curve" smooth="yes"/>
      <point x="690" y="434"/>
      <point x="765" y="507"/>
      <point x="865" y="507" type="curve" smooth="yes"/>
      <point x="955" y="507"/>
      <point x="1023" y="443"/>
      <point x="1023" y="341" type="curve" smooth="yes"/>
      <point x="1023" y="247"/>
      <point x="942" y="180"/>
      <point x="854" y="180" type="curve" smooth="yes"/>
      <point x="780" y="180"/>
      <point x="723" y="234"/>
    </contour>
  </outline>
</glyph>
<glyph name="uni2031" format="2">
  <advance width="4009"/>
  <unicode hex="2031"/>
  <outline>
    <contour>
      <point x="3370" y="420" type="curve" smooth="yes"/>
      <point x="3370" y="148"/>
      <point x="3402" y="-12"/>
      <point x="3500" y="-12" type="curve" smooth="yes"/>
      <point x="3598" y="-12"/>
      <point x="3630" y="148"/>
      <point x="3630" y="420" type="curve" smooth="yes"/>
      <point x="3630" y="692"/>
      <point x="3598" y="852"/>
      <point x="3500" y="852" type="curve" smooth="yes"/>
      <point x="3402" y="852"/>
      <point x="3370" y="692"/>
    </contour>
    <contour>
      <point x="3060" y="420" type="curve" smooth="yes"/>
      <point x="3060" y="706"/>
      <point x="3274" y="860"/>
      <point x="3500" y="860" type="curve" smooth="yes"/>
      <point x="3726" y="860"/>
      <point x="3940" y="706"/>
      <point x="3940" y="420" type="curve" smooth="yes"/>
      <point x="3940" y="134"/>
      <point x="3686" y="-20"/>
      <point x="3500" y="-20" type="curve" smooth="yes"/>
      <point x="3274" y="-20"/>
      <point x="3060" y="134"/>
    </contour>
    <contour>
      <point x="2380" y="420" type="curve" smooth="yes"/>
      <point x="2380" y="148"/>
      <point x="2412" y="-12"/>
      <point x="2510" y="-12" type="curve" smooth="yes"/>
      <point x="2608" y="-12"/>
      <point x="2640" y="148"/>
      <point x="2640" y="420" type="curve" smooth="yes"/>
      <point x="2640" y="692"/>
      <point x="2608" y="852"/>
      <point x="2510" y="852" type="curve" smooth="yes"/>
      <point x="2412" y="852"/>
      <point x="2380" y="692"/>
    </contour>
    <contour>
      <point x="2070" y="420" type="curve" smooth="yes"/>
      <point x="2070" y="706"/>
      <point x="2284" y="860"/>
      <point x="2510" y="860" type="curve" smooth="yes"/>
      <point x="2736" y="860"/>
      <point x="2950" y="706"/>
      <point x="2950" y="420" type="curve" smooth="yes"/>
      <point x="2950" y="134"/>
      <point x="2696" y="-20"/>
      <point x="2510" y="-20" type="curve" smooth="yes"/>
      <point x="2284" y="-20"/>
      <point x="2070" y="134"/>
    </contour>
    <contour>
      <point x="1400" y="420" type="curve" smooth="yes"/>
      <point x="1400" y="148"/>
      <point x="1432" y="-12"/>
      <point x="1530" y="-12" type="curve" smooth="yes"/>
      <point x="1628" y="-12"/>
      <point x="1660" y="148"/>
      <point x="1660" y="420" type="curve" smooth="yes"/>
      <point x="1660" y="692"/>
      <point x="1628" y="852"/>
      <point x="1530" y="852" type="curve" smooth="yes"/>
      <point x="1432" y="852"/>
      <point x="1400" y="692"/>
    </contour>
    <contour>
      <point x="1090" y="420" type="curve" smooth="yes"/>
      <point x="1090" y="706"/>
      <point x="1304" y="860"/>
      <point x="1530" y="860" type="curve" smooth="yes"/>
      <point x="1756" y="860"/>
      <point x="1970" y="706"/>
      <point x="1970" y="420" type="curve" smooth="yes"/>
      <point x="1970" y="134"/>
      <point x="1716" y="-20"/>
      <point x="1530" y="-20" type="curve" smooth="yes"/>
      <point x="1304" y="-20"/>
      <point x="1090" y="134"/>
    </contour>
    <contour>
      <point x="1541" y="1500" type="line"/>
      <point x="1551" y="1500" type="line"/>
      <point x="499" y="0" type="line"/>
      <point x="489" y="0" type="line"/>
    </contour>
    <contour>
      <point x="380" y="1080" type="curve" smooth="yes"/>
      <point x="380" y="808"/>
      <point x="412" y="648"/>
      <point x="510" y="648" type="curve" smooth="yes"/>
      <point x="608" y="648"/>
      <point x="640" y="808"/>
      <point x="640" y="1080" type="curve" smooth="yes"/>
      <point x="640" y="1352"/>
      <point x="608" y="1512"/>
      <point x="510" y="1512" type="curve" smooth="yes"/>
      <point x="412" y="1512"/>
      <point x="380" y="1352"/>
    </contour>
    <contour>
      <point x="70" y="1080" type="curve" smooth="yes"/>
      <point x="70" y="1366"/>
      <point x="284" y="1520"/>
      <point x="510" y="1520" type="curve" smooth="yes"/>
      <point x="736" y="1520"/>
      <point x="950" y="1366"/>
      <point x="950" y="1080" type="curve" smooth="yes"/>
      <point x="950" y="794"/>
      <point x="696" y="640"/>
      <point x="510" y="640" type="curve" smooth="yes"/>
      <point x="284" y="640"/>
      <point x="70" y="794"/>
    </contour>
  </outline>
</glyph>
<glyph name="uni203D" format="2">
  <advance width="1319"/>
  <unicode hex="203D"/>
  <outline>
    <contour>
      <point x="812" y="1038" type="curve" smooth="yes"/>
      <point x="790" y="846"/>
      <point x="649" y="626"/>
      <point x="649" y="486" type="curve"/>
      <point x="639" y="486" type="line"/>
      <point x="639" y="626"/>
      <point x="538" y="846"/>
      <point x="516" y="1038" type="curve" smooth="yes"/>
      <point x="514" y="1052"/>
      <point x="514" y="1064"/>
      <point x="514" y="1076" type="curve" smooth="yes"/>
      <point x="514" y="1132"/>
      <point x="550" y="1226"/>
      <point x="664" y="1226" type="curve" smooth="yes"/>
      <point x="778" y="1226"/>
      <point x="814" y="1132"/>
      <point x="814" y="1076" type="curve" smooth="yes"/>
      <point x="814" y="1064"/>
      <point x="814" y="1052"/>
    </contour>
    <contour>
      <point x="130" y="1112" type="curve" smooth="yes"/>
      <point x="130" y="1296"/>
      <point x="328" y="1520"/>
      <point x="682" y="1520" type="curve" smooth="yes"/>
      <point x="984" y="1520"/>
      <point x="1240" y="1370"/>
      <point x="1240" y="1100" type="curve" smooth="yes"/>
      <point x="1240" y="840"/>
      <point x="936" y="670"/>
      <point x="674" y="670" type="curve"/>
      <point x="674" y="678" type="line"/>
      <point x="838" y="685"/>
      <point x="978" y="908"/>
      <point x="978" y="1120" type="curve" smooth="yes"/>
      <point x="978" y="1308"/>
      <point x="854" y="1497"/>
      <point x="636" y="1497" type="curve" smooth="yes"/>
      <point x="351" y="1497"/>
      <point x="168" y="1304"/>
      <point x="152" y="1160" type="curve"/>
      <point x="165" y="1203"/>
      <point x="218" y="1250"/>
      <point x="294" y="1250" type="curve" smooth="yes"/>
      <point x="382" y="1250"/>
      <point x="438" y="1170"/>
      <point x="438" y="1100" type="curve" smooth="yes"/>
      <point x="438" y="990"/>
      <point x="354" y="938"/>
      <point x="284" y="938" type="curve" smooth="yes"/>
      <point x="204" y="938"/>
      <point x="130" y="1000"/>
    </contour>
    <component base="period" xOffset="378"/>
  </outline>
</glyph>
<glyph name="Euro" format="2">
  <advance width="2969"/>
  <unicode hex="20AC"/>
  <outline>
    <contour>
      <point x="2712" y="2656" type="curve"/>
      <point x="2637" y="2838.5"/>
      <point x="2353" y="3082.5"/>
      <point x="1962" y="3082.5" type="curve" smooth="yes"/>
      <point x="1372.5" y="3082.5"/>
      <point x="1188" y="2331"/>
      <point x="1188" y="1536" type="curve" smooth="yes"/>
      <point x="1188" y="659.5"/>
      <point x="1417.5" y="3.5"/>
      <point x="1884.5" y="3.5" type="curve" smooth="yes"/>
      <point x="2291" y="3.5"/>
      <point x="2614.5" y="341"/>
      <point x="2716.5" y="729" type="curve"/>
      <point x="2736.5" y="729" type="line"/>
      <point x="2630.5" y="332"/>
      <point x="2311" y="-41"/>
      <point x="1774" y="-41" type="curve" smooth="yes"/>
      <point x="1053.5" y="-41"/>
      <point x="450.5" y="594"/>
      <point x="450.5" y="1536" type="curve" smooth="yes"/>
      <point x="450.5" y="2396"/>
      <point x="995.5" y="3113"/>
      <point x="1880" y="3113" type="curve" smooth="yes"/>
      <point x="2441.5" y="3113"/>
      <point x="2785.5" y="2756.5"/>
      <point x="2785.5" y="2482" type="curve" smooth="yes"/>
      <point x="2785.5" y="2252.5"/>
      <point x="2633.5" y="2125.5"/>
      <point x="2449" y="2125.5" type="curve" smooth="yes"/>
      <point x="2285.5" y="2125.5"/>
      <point x="2113.5" y="2232.5"/>
      <point x="2113.5" y="2458" type="curve" smooth="yes"/>
      <point x="2113.5" y="2662.5"/>
      <point x="2268.5" y="2785.5"/>
      <point x="2449" y="2785.5" type="curve" smooth="yes"/>
      <point x="2578" y="2785.5"/>
      <point x="2680.5" y="2706"/>
    </contour>
    <component base="equal" xOffset="-123" yOffset="-287"/>
  </outline>
</glyph>
<glyph name="uni2116" format="2">
  <advance width="2295"/>
  <unicode hex="2116"/>
  <outline>
    <contour>
      <point x="1734" y="1140" type="curve" smooth="yes"/>
      <point x="1734" y="912"/>
      <point x="1774" y="768"/>
      <point x="1872" y="768" type="curve" smooth="yes"/>
      <point x="1970" y="768"/>
      <point x="2010" y="912"/>
      <point x="2010" y="1140" type="curve" smooth="yes"/>
      <point x="2010" y="1368"/>
      <point x="1970" y="1512"/>
      <point x="1872" y="1512" type="curve" smooth="yes"/>
      <point x="1774" y="1512"/>
      <point x="1734" y="1368"/>
    </contour>
    <contour>
      <point x="1504" y="1140" type="curve" smooth="yes"/>
      <point x="1504" y="1390"/>
      <point x="1660" y="1520"/>
      <point x="1872" y="1520" type="curve" smooth="yes"/>
      <point x="2084" y="1520"/>
      <point x="2240" y="1390"/>
      <point x="2240" y="1140" type="curve" smooth="yes"/>
      <point x="2240" y="890"/>
      <point x="2084" y="760"/>
      <point x="1872" y="760" type="curve" smooth="yes"/>
      <point x="1660" y="760"/>
      <point x="1504" y="890"/>
    </contour>
    <component base="hyphen" xOffset="1512" yOffset="80"/>
    <component base="N"/>
  </outline>
</glyph>
<glyph name="uniFB00" format="2">
  <advance width="1432"/>
  <unicode hex="FB00"/>
  <outline>
    <contour>
      <point x="34" y="9" type="line"/>
      <point x="1346" y="9" type="line"/>
      <point x="1346" y="0" type="line"/>
      <point x="34" y="0" type="line"/>
    </contour>
    <contour>
      <point x="34" y="920" type="line"/>
      <point x="1385" y="920" type="line"/>
      <point x="1385" y="911" type="line"/>
      <point x="34" y="911" type="line"/>
    </contour>
    <contour>
      <point x="1000" y="1234" type="curve"/>
      <point x="984" y="1316"/>
      <point x="868" y="1410"/>
      <point x="738" y="1410" type="curve" smooth="yes"/>
      <point x="577" y="1410"/>
      <point x="484" y="1234"/>
      <point x="484" y="980" type="curve" smooth="yes"/>
      <point x="484" y="0" type="line"/>
      <point x="214" y="0" type="line"/>
      <point x="214" y="924" type="line" smooth="yes"/>
      <point x="214" y="1206"/>
      <point x="427" y="1420"/>
      <point x="728" y="1420" type="curve" smooth="yes"/>
      <point x="900" y="1420"/>
      <point x="1025" y="1296"/>
      <point x="1025" y="1182" type="curve" smooth="yes"/>
      <point x="1025" y="1080"/>
      <point x="961" y="1018"/>
      <point x="871" y="1018" type="curve" smooth="yes"/>
      <point x="791" y="1018"/>
      <point x="709" y="1070"/>
      <point x="709" y="1168" type="curve" smooth="yes"/>
      <point x="709" y="1266"/>
      <point x="775" y="1321"/>
      <point x="859" y="1321" type="curve" smooth="yes"/>
      <point x="930" y="1321"/>
      <point x="992" y="1257"/>
    </contour>
    <contour>
      <point x="1580" y="1344" type="curve"/>
      <point x="1566" y="1420"/>
      <point x="1477" y="1509"/>
      <point x="1334" y="1509" type="curve" smooth="yes"/>
      <point x="1174" y="1509"/>
      <point x="1110" y="1334"/>
      <point x="1110" y="1080" type="curve" smooth="yes"/>
      <point x="1110" y="0" type="line"/>
      <point x="840" y="0" type="line"/>
      <point x="840" y="1024" type="line" smooth="yes"/>
      <point x="840" y="1306"/>
      <point x="1034" y="1520"/>
      <point x="1324" y="1520" type="curve" smooth="yes"/>
      <point x="1496" y="1520"/>
      <point x="1600" y="1406"/>
      <point x="1600" y="1292" type="curve" smooth="yes"/>
      <point x="1600" y="1190"/>
      <point x="1536" y="1128"/>
      <point x="1446" y="1128" type="curve" smooth="yes"/>
      <point x="1366" y="1128"/>
      <point x="1284" y="1180"/>
      <point x="1284" y="1278" type="curve" smooth="yes"/>
      <point x="1284" y="1376"/>
      <point x="1358" y="1430"/>
      <point x="1441" y="1430" type="curve" smooth="yes"/>
      <point x="1503" y="1430"/>
      <point x="1560" y="1392"/>
    </contour>
  </outline>
</glyph>
<glyph name="uniFB01" format="2">
  <advance width="1269"/>
  <unicode hex="FB01"/>
  <outline>
    <contour>
      <point x="214" y="1024" type="line" smooth="yes"/>
      <point x="214" y="1316"/>
      <point x="418" y="1520"/>
      <point x="768" y="1520" type="curve" smooth="yes"/>
      <point x="980" y="1520"/>
      <point x="1096" y="1406"/>
      <point x="1096" y="1282" type="curve" smooth="yes"/>
      <point x="1096" y="1180"/>
      <point x="1031" y="1118"/>
      <point x="941" y="1118" type="curve" smooth="yes"/>
      <point x="859" y="1118"/>
      <point x="779" y="1171"/>
      <point x="779" y="1267" type="curve" smooth="yes"/>
      <point x="779" y="1363"/>
      <point x="853" y="1420"/>
      <point x="936" y="1420" type="curve" smooth="yes"/>
      <point x="1004" y="1420"/>
      <point x="1053" y="1382"/>
      <point x="1073" y="1330" type="curve"/>
      <point x="1047" y="1431"/>
      <point x="946" y="1510"/>
      <point x="768" y="1510" type="curve" smooth="yes"/>
      <point x="549" y="1510"/>
      <point x="484" y="1334"/>
      <point x="484" y="1080" type="curve" smooth="yes"/>
      <point x="484" y="0" type="line"/>
      <point x="214" y="0" type="line"/>
    </contour>
    <contour>
      <point x="34" y="9" type="line"/>
      <point x="1230" y="9" type="line"/>
      <point x="1230" y="0" type="line"/>
      <point x="34" y="0" type="line"/>
    </contour>
    <contour>
      <point x="810" y="911" type="line"/>
      <point x="34" y="911" type="line"/>
      <point x="34" y="920" type="line"/>
      <point x="1090" y="920" type="line"/>
      <point x="1090" y="0" type="line"/>
      <point x="810" y="0" type="line"/>
    </contour>
  </outline>
</glyph>
<glyph name="uniFB02" format="2">
  <advance width="1376"/>
  <unicode hex="FB02"/>
  <outline>
    <contour>
      <point x="34" y="9" type="line"/>
      <point x="1335" y="9" type="line"/>
      <point x="1335" y="0" type="line"/>
      <point x="34" y="0" type="line"/>
    </contour>
    <contour>
      <point x="34" y="920" type="line"/>
      <point x="760" y="920" type="line"/>
      <point x="760" y="911" type="line"/>
      <point x="34" y="911" type="line"/>
    </contour>
    <contour>
      <point x="894" y="1460" type="line"/>
      <point x="1173" y="1540" type="line"/>
      <point x="1173" y="0" type="line"/>
      <point x="894" y="0" type="line"/>
    </contour>
    <contour>
      <point x="967" y="1326" type="curve"/>
      <point x="955" y="1412"/>
      <point x="866" y="1508"/>
      <point x="718" y="1508" type="curve" smooth="yes"/>
      <point x="540" y="1508"/>
      <point x="484" y="1334"/>
      <point x="484" y="1080" type="curve" smooth="yes"/>
      <point x="484" y="0" type="line"/>
      <point x="214" y="0" type="line"/>
      <point x="214" y="1024" type="line" smooth="yes"/>
      <point x="214" y="1306"/>
      <point x="418" y="1520"/>
      <point x="708" y="1520" type="curve" smooth="yes"/>
      <point x="880" y="1520"/>
      <point x="984" y="1408"/>
      <point x="984" y="1284" type="curve" smooth="yes"/>
      <point x="984" y="1182"/>
      <point x="920" y="1120"/>
      <point x="830" y="1120" type="curve" smooth="yes"/>
      <point x="750" y="1120"/>
      <point x="668" y="1168"/>
      <point x="668" y="1268" type="curve" smooth="yes"/>
      <point x="668" y="1368"/>
      <point x="735" y="1422"/>
      <point x="822" y="1422" type="curve" smooth="yes"/>
      <point x="917" y="1422"/>
      <point x="959" y="1340"/>
    </contour>
  </outline>
</glyph>
<glyph name="uniFB03" format="2">
  <advance width="3841"/>
  <unicode hex="FB03"/>
  <outline>
    <contour>
      <point x="1679.58" y="2098.18" type="line" smooth="yes"/>
      <point x="1679.58" y="2696.37"/>
      <point x="2099.9" y="3112.82"/>
      <point x="2815.58" y="3112.82" type="curve" smooth="yes"/>
      <point x="3248.9" y="3112.82"/>
      <point x="3482.76" y="2881.32"/>
      <point x="3482.76" y="2626.82" type="curve" smooth="yes"/>
      <point x="3482.76" y="2417.82"/>
      <point x="3352.58" y="2290.82"/>
      <point x="3168.08" y="2290.82" type="curve" smooth="yes"/>
      <point x="3000.9" y="2290.82"/>
      <point x="2836.08" y="2399"/>
      <point x="2836.08" y="2594.5" type="curve" smooth="yes"/>
      <point x="2836.08" y="2791"/>
      <point x="2982.5" y="2907.68"/>
      <point x="3152.68" y="2907.68" type="curve" smooth="yes"/>
      <point x="3316.38" y="2907.68"/>
      <point x="3406.2" y="2822.12"/>
      <point x="3434.2" y="2727.97" type="curve"/>
      <point x="3383.83" y="2927.88"/>
      <point x="3182.78" y="3091.62"/>
      <point x="2815.58" y="3091.62" type="curve" smooth="yes"/>
      <point x="2368.26" y="3091.62"/>
      <point x="2232.58" y="2735.5"/>
      <point x="2232.58" y="2212.5" type="curve" smooth="yes"/>
      <point x="2232.58" y="0.5" type="line"/>
      <point x="1679.58" y="0.5" type="line"/>
    </contour>
    <contour>
      <point x="69.081" y="18.8754" type="line"/>
      <point x="3760.08" y="18.8754" type="line"/>
      <point x="3760.08" y="0" type="line"/>
      <point x="69.081" y="0" type="line"/>
    </contour>
    <contour>
      <point x="438.081" y="1892" type="line" smooth="yes"/>
      <point x="438.081" y="2465.5"/>
      <point x="873.581" y="2908"/>
      <point x="1490.58" y="2908" type="curve" smooth="yes"/>
      <point x="1843.9" y="2908"/>
      <point x="2099.08" y="2656"/>
      <point x="2099.08" y="2421.5" type="curve" smooth="yes"/>
      <point x="2099.08" y="2212.5"/>
      <point x="1968.08" y="2085.5"/>
      <point x="1783.58" y="2085.5" type="curve" smooth="yes"/>
      <point x="1619.9" y="2085.5"/>
      <point x="1451.58" y="2191.68"/>
      <point x="1451.58" y="2393.18" type="curve" smooth="yes"/>
      <point x="1451.58" y="2593.68"/>
      <point x="1588.58" y="2706.32"/>
      <point x="1758.76" y="2706.32" type="curve" smooth="yes"/>
      <point x="1906.6" y="2706.32"/>
      <point x="2015.19" y="2609.17"/>
      <point x="2030.69" y="2560.67" type="curve"/>
      <point x="1978.35" y="2712.82"/>
      <point x="1782.12" y="2884.81"/>
      <point x="1511.26" y="2884.81" type="curve" smooth="yes"/>
      <point x="1180.26" y="2884.81"/>
      <point x="990.081" y="2527.18"/>
      <point x="990.081" y="2007.18" type="curve" smooth="yes"/>
      <point x="990.081" y="0" type="line"/>
      <point x="438.081" y="0" type="line"/>
    </contour>
    <contour>
      <point x="2899.76" y="1865.12" type="line"/>
      <point x="69.081" y="1865.12" type="line"/>
      <point x="69.081" y="1884" type="line"/>
      <point x="3472.76" y="1884" type="line"/>
      <point x="3472.76" y="0" type="line"/>
      <point x="2899.76" y="0" type="line"/>
    </contour>
  </outline>
</glyph>
<glyph name="uniFB04" format="2">
  <advance width="2000"/>
  <unicode hex="FB04"/>
  <outline>
    <contour>
      <point x="34" y="9" type="line"/>
      <point x="1960" y="9" type="line"/>
      <point x="1960" y="0" type="line"/>
      <point x="34" y="0" type="line"/>
    </contour>
    <contour>
      <point x="34" y="920" type="line"/>
      <point x="1384" y="920" type="line"/>
      <point x="1384" y="911" type="line"/>
      <point x="34" y="911" type="line"/>
    </contour>
    <contour>
      <point x="1518" y="1460" type="line"/>
      <point x="1798" y="1540" type="line"/>
      <point x="1798" y="0" type="line"/>
      <point x="1518" y="0" type="line"/>
    </contour>
    <contour>
      <point x="990" y="1252" type="curve"/>
      <point x="964" y="1326"/>
      <point x="867" y="1410"/>
      <point x="737" y="1410" type="curve" smooth="yes"/>
      <point x="577" y="1410"/>
      <point x="484" y="1234"/>
      <point x="484" y="980" type="curve" smooth="yes"/>
      <point x="484" y="0" type="line"/>
      <point x="214" y="0" type="line"/>
      <point x="214" y="924" type="line" smooth="yes"/>
      <point x="214" y="1205"/>
      <point x="427" y="1420"/>
      <point x="727" y="1420" type="curve" smooth="yes"/>
      <point x="899" y="1420"/>
      <point x="1024" y="1296"/>
      <point x="1024" y="1182" type="curve" smooth="yes"/>
      <point x="1024" y="1080"/>
      <point x="960" y="1018"/>
      <point x="870" y="1018" type="curve" smooth="yes"/>
      <point x="790" y="1018"/>
      <point x="707" y="1070"/>
      <point x="707" y="1168" type="curve" smooth="yes"/>
      <point x="707" y="1266"/>
      <point x="775" y="1321"/>
      <point x="858" y="1321" type="curve" smooth="yes"/>
      <point x="924" y="1321"/>
      <point x="981" y="1276"/>
    </contour>
    <contour>
      <point x="1586" y="1335" type="curve"/>
      <point x="1568" y="1431"/>
      <point x="1468" y="1510"/>
      <point x="1342" y="1510" type="curve" smooth="yes"/>
      <point x="1164" y="1510"/>
      <point x="1108" y="1334"/>
      <point x="1108" y="1080" type="curve" smooth="yes"/>
      <point x="1108" y="0" type="line"/>
      <point x="838" y="0" type="line"/>
      <point x="838" y="1024" type="line" smooth="yes"/>
      <point x="838" y="1306"/>
      <point x="1042" y="1520"/>
      <point x="1332" y="1520" type="curve" smooth="yes"/>
      <point x="1504" y="1520"/>
      <point x="1608" y="1408"/>
      <point x="1608" y="1284" type="curve" smooth="yes"/>
      <point x="1608" y="1182"/>
      <point x="1544" y="1120"/>
      <point x="1454" y="1120" type="curve" smooth="yes"/>
      <point x="1374" y="1120"/>
      <point x="1292" y="1168"/>
      <point x="1292" y="1268" type="curve" smooth="yes"/>
      <point x="1292" y="1368"/>
      <point x="1359" y="1422"/>
      <point x="1446" y="1422" type="curve" smooth="yes"/>
      <point x="1542" y="1422"/>
      <point x="1577" y="1349"/>
    </contour>
  </outline>
</glyph>
<glyph name="J.alt" format="2">
  <advance width="1266"/>
  <outline>
    <contour>
      <point x="477" y="1500" type="line"/>
      <point x="1237" y="1500" type="line"/>
      <point x="1237" y="1491" type="line"/>
      <point x="477" y="1491" type="line"/>
    </contour>
    <contour>
      <point x="727" y="1500" type="line"/>
      <point x="1037" y="1500" type="line"/>
      <point x="1037" y="450" type="line"/>
      <point x="977" y="170"/>
      <point x="809" y="-40"/>
      <point x="457" y="-40" type="curve" smooth="yes"/>
      <point x="193" y="-40"/>
      <point x="35" y="150"/>
      <point x="35" y="330" type="curve" smooth="yes"/>
      <point x="35" y="484"/>
      <point x="139" y="570"/>
      <point x="249" y="570" type="curve" smooth="yes"/>
      <point x="349" y="570"/>
      <point x="431" y="504"/>
      <point x="431" y="387" type="curve" smooth="yes"/>
      <point x="431" y="287"/>
      <point x="347" y="205"/>
      <point x="240" y="205" type="curve" smooth="yes"/>
      <point x="145" y="205"/>
      <point x="70" y="250"/>
      <point x="48" y="307" type="curve"/>
      <point x="64" y="123"/>
      <point x="230" y="-26"/>
      <point x="437" y="-26" type="curve" smooth="yes"/>
      <point x="649" y="-26"/>
      <point x="727" y="160"/>
      <point x="727" y="440" type="curve" smooth="yes"/>
    </contour>
  </outline>
</glyph>
<glyph name="R.alt" format="2">
  <advance width="2983"/>
  <outline>
    <contour>
      <point x="1505.82" y="1569.37" type="curve" smooth="yes"/>
      <point x="809.816" y="1569.37" type="line"/>
      <point x="809.816" y="1585.35" type="line"/>
      <point x="1403.5" y="1585.35" type="line" smooth="yes"/>
      <point x="1796.68" y="1585.35"/>
      <point x="1997.5" y="1825"/>
      <point x="1997.5" y="2312" type="curve" smooth="yes"/>
      <point x="1997.5" y="2799"/>
      <point x="1796.68" y="3053.12"/>
      <point x="1403.5" y="3053.12" type="curve" smooth="yes"/>
      <point x="72.1838" y="3053.12" type="line"/>
      <point x="72.1838" y="3072" type="line"/>
      <point x="1505.82" y="3072" type="line" smooth="yes"/>
      <point x="2185.5" y="3072"/>
      <point x="2652.82" y="2844"/>
      <point x="2652.82" y="2312" type="curve" smooth="yes"/>
      <point x="2652.82" y="1780"/>
      <point x="2226.32" y="1569.37"/>
    </contour>
    <contour>
      <point x="72.1838" y="18.8754" type="line"/>
      <point x="1526.18" y="18.8754" type="line"/>
      <point x="1526.18" y="0" type="line"/>
      <point x="72.1838" y="0" type="line"/>
    </contour>
    <contour>
      <point x="481.5" y="3072" type="line"/>
      <point x="1116.82" y="3072" type="line"/>
      <point x="1116.82" y="0" type="line"/>
      <point x="481.5" y="0" type="line"/>
    </contour>
    <contour>
      <point x="2939.5" y="0" type="line"/>
      <point x="2873.5" y="0"/>
      <point x="2636.68" y="0"/>
      <point x="2489.5" y="0" type="curve" smooth="yes"/>
      <point x="1412.5" y="0"/>
      <point x="2391.32" y="1564.65"/>
      <point x="1383.5" y="1564.65" type="curve" smooth="yes"/>
      <point x="809.816" y="1564.65" type="line"/>
      <point x="809.816" y="1579.68" type="line"/>
      <point x="1711.18" y="1579.68" type="line" smooth="yes"/>
      <point x="3095.68" y="1579.68"/>
      <point x="2271.32" y="18.8754"/>
      <point x="2795.82" y="18.8754" type="curve" smooth="yes"/>
      <point x="2881.82" y="18.8754"/>
      <point x="2882.32" y="18.8754"/>
      <point x="2939.5" y="18.8754" type="curve"/>
    </contour>
  </outline>
</glyph>
<glyph name="fj.lig" format="2">
  <advance width="1236"/>
  <outline>
    <contour>
      <point x="38" y="9" type="line"/>
      <point x="673" y="9" type="line"/>
      <point x="673" y="0" type="line"/>
      <point x="38" y="0" type="line"/>
    </contour>
    <contour>
      <point x="1083" y="-24" type="line" smooth="yes"/>
      <point x="1083" y="-286"/>
      <point x="929" y="-520"/>
      <point x="649" y="-520" type="curve" smooth="yes"/>
      <point x="467" y="-520"/>
      <point x="343" y="-421"/>
      <point x="343" y="-287" type="curve" smooth="yes"/>
      <point x="343" y="-185"/>
      <point x="417" y="-118"/>
      <point x="507" y="-118" type="curve" smooth="yes"/>
      <point x="587" y="-118"/>
      <point x="669" y="-166"/>
      <point x="669" y="-266" type="curve" smooth="yes"/>
      <point x="669" y="-366"/>
      <point x="592" y="-418"/>
      <point x="502" y="-418" type="curve" smooth="yes"/>
      <point x="432" y="-418"/>
      <point x="384" y="-376"/>
      <point x="366" y="-332" type="curve"/>
      <point x="382" y="-429"/>
      <point x="486" y="-508"/>
      <point x="629" y="-508" type="curve" smooth="yes"/>
      <point x="839" y="-508"/>
      <point x="803" y="-214"/>
      <point x="803" y="40" type="curve" smooth="yes"/>
      <point x="803" y="911" type="line"/>
      <point x="38" y="911" type="line"/>
      <point x="38" y="920" type="line"/>
      <point x="1083" y="920" type="line"/>
    </contour>
    <contour>
      <point x="1051" y="1356" type="curve"/>
      <point x="1029" y="1428"/>
      <point x="944" y="1509"/>
      <point x="762" y="1509" type="curve" smooth="yes"/>
      <point x="553" y="1509"/>
      <point x="488" y="1334"/>
      <point x="488" y="1080" type="curve" smooth="yes"/>
      <point x="488" y="0" type="line"/>
      <point x="218" y="0" type="line"/>
      <point x="218" y="1024" type="line" smooth="yes"/>
      <point x="218" y="1316"/>
      <point x="412" y="1520"/>
      <point x="762" y="1520" type="curve" smooth="yes"/>
      <point x="974" y="1520"/>
      <point x="1088" y="1406"/>
      <point x="1088" y="1282" type="curve" smooth="yes"/>
      <point x="1088" y="1180"/>
      <point x="1024" y="1118"/>
      <point x="934" y="1118" type="curve" smooth="yes"/>
      <point x="854" y="1118"/>
      <point x="772" y="1167"/>
      <point x="772" y="1267" type="curve" smooth="yes"/>
      <point x="772" y="1366"/>
      <point x="849" y="1420"/>
      <point x="929" y="1420" type="curve" smooth="yes"/>
      <point x="993" y="1420"/>
      <point x="1033" y="1388"/>
    </contour>
  </outline>
</glyph>
<glyph name="four.alt" format="2">
  <advance width="2682"/>
  <outline>
    <contour>
      <point x="2416.5" y="18.8754" type="line"/>
      <point x="2416.5" y="0" type="line"/>
      <point x="1085.18" y="0" type="line"/>
      <point x="1085.18" y="18.8754" type="line"/>
    </contour>
    <contour>
      <point x="2109.68" y="2040" type="curve"/>
      <point x="2109.68" y="-3.5" type="line"/>
      <point x="1474.82" y="-3.5" type="line"/>
      <point x="1474.82" y="1855.68" type="line"/>
      <point x="1659.32" y="1855.68"/>
      <point x="1986.68" y="1958.18"/>
    </contour>
    <contour>
      <point x="94.8022" y="790.846" type="curve"/>
      <point x="2478" y="790.846" type="line"/>
      <point x="2478" y="771.654" type="line"/>
      <point x="61.1838" y="771.654" type="line"/>
      <point x="634.368" y="1590.84"/>
      <point x="1269.82" y="2458"/>
      <point x="1351.82" y="3072" type="curve"/>
      <point x="2040" y="3072" type="line"/>
      <point x="1962" y="2375.68"/>
      <point x="672.802" y="1585.66"/>
    </contour>
  </outline>
</glyph>
